{"glyphs":{"0":{"ha":1247,"x_min":34,"x_max":1213,"o":"m 837 1179 q 1205 769 1096 1139 q 1213 642 1213 688 q 746 18 1213 222 q 525 -22 625 -22 l 517 -22 q 58 357 202 -22 q 34 540 34 437 q 398 1118 34 906 q 697 1190 527 1190 q 837 1179 764 1190 m 351 532 q 509 302 392 302 l 541 302 q 865 516 745 302 q 897 650 888 566 q 675 848 897 848 q 366 618 439 848 l 351 532 m 837 267 q 823 262 832 267 q 810 250 810 254 l 807 254 q 784 266 795 266 q 758 235 762 266 q 776 191 758 215 q 810 169 799 169 q 829 180 819 169 q 863 239 863 218 l 863 246 q 842 267 857 267 l 837 267 m 623 237 q 599 231 614 237 q 577 209 577 215 l 572 216 q 532 236 551 236 q 488 185 494 236 q 518 109 488 149 q 576 71 558 71 q 610 91 591 71 q 667 191 667 155 l 667 202 q 631 237 656 237 l 623 237 m 354 263 q 340 259 349 263 q 328 246 328 250 l 324 251 q 301 262 312 262 q 275 232 279 262 q 293 188 275 212 q 327 165 316 165 q 347 177 336 165 q 380 236 380 215 l 380 243 q 359 263 374 263 l 354 263 z "},"1":{"ha":646,"x_min":34,"x_max":612,"o":"m 437 1220 q 612 1038 576 1220 q 501 113 549 651 q 351 -30 451 -30 l 319 -30 q 176 128 198 -30 q 256 785 208 307 l 216 777 l 184 777 q 34 935 58 777 q 256 1141 34 1061 q 437 1220 336 1220 m 414 666 l 412 666 q 400 664 408 666 q 386 652 387 656 l 383 657 q 361 671 372 670 l 358 671 q 332 645 339 671 l 332 640 q 345 598 332 621 q 376 572 365 573 l 378 572 q 397 581 386 572 q 437 636 435 615 l 437 642 q 419 665 433 663 l 414 666 m 479 921 l 474 921 q 454 918 466 921 q 429 899 430 905 l 425 907 q 389 930 407 928 q 382 931 385 931 q 338 885 349 931 q 337 875 337 880 q 359 806 337 844 q 412 762 394 764 l 414 762 q 448 777 429 762 q 516 870 512 835 l 517 881 q 486 920 511 917 l 479 921 m 474 1112 l 472 1112 q 459 1110 467 1112 q 445 1099 446 1103 l 443 1103 q 421 1118 432 1116 l 417 1118 q 391 1091 398 1118 q 391 1084 391 1088 q 404 1045 391 1066 q 435 1019 425 1020 l 437 1019 q 456 1027 445 1019 q 496 1082 494 1061 l 497 1088 q 478 1112 493 1110 l 474 1112 z "},"2":{"ha":1215,"x_min":34,"x_max":1181,"o":"m 564 1213 q 952 1023 844 1213 q 983 888 983 975 l 983 840 q 659 357 983 616 q 1047 374 940 366 q 1181 239 1181 332 l 1181 184 q 1023 41 1181 83 q 810 49 877 49 q 232 1 646 49 q 34 184 34 32 q 454 595 34 320 q 667 872 667 764 l 659 872 q 596 888 630 888 l 517 888 q 319 801 410 888 q 240 777 279 777 l 224 777 q 74 943 93 777 q 288 1157 74 1054 q 564 1213 422 1213 m 947 258 q 933 254 942 258 q 920 241 920 245 l 917 246 q 894 258 905 258 q 867 227 871 258 q 886 183 867 207 q 920 161 909 161 q 939 172 928 161 q 972 231 972 210 l 972 238 q 951 258 966 258 l 947 258 m 730 281 q 705 274 720 281 q 684 252 684 258 l 678 260 q 639 279 658 279 q 594 229 601 279 q 625 153 594 193 q 683 115 665 115 q 717 134 698 115 q 773 235 773 199 l 773 245 q 737 281 762 281 l 730 281 m 487 223 q 473 219 482 223 q 460 206 460 210 l 457 211 q 434 222 445 222 q 408 192 412 222 q 426 148 408 172 q 460 125 449 125 q 479 137 469 125 q 513 196 513 175 l 513 203 q 492 223 507 223 l 487 223 z "},"3":{"ha":1097,"x_min":34,"x_max":1063,"o":"m 675 1196 l 888 1196 q 1063 1030 1063 1160 l 1063 999 q 841 713 1063 904 l 841 706 q 1000 437 1000 610 l 1000 421 q 691 33 1000 172 q 454 -14 572 -14 q 42 231 101 -14 l 42 239 q 200 421 71 421 l 224 421 q 366 318 307 421 q 450 292 395 292 q 546 306 491 292 q 675 437 675 339 q 437 469 637 460 q 335 627 335 531 q 525 864 335 738 l 525 872 l 517 872 q 208 840 416 872 q 34 991 34 867 l 34 1015 q 240 1165 34 1152 q 675 1196 493 1196 m 800 1095 q 787 1090 795 1095 q 774 1078 774 1082 l 770 1082 q 747 1094 758 1094 q 721 1063 725 1094 q 739 1019 721 1043 q 773 997 762 997 q 793 1008 782 997 q 826 1067 826 1046 l 826 1074 q 805 1095 820 1095 l 800 1095 m 609 1117 q 585 1110 600 1117 q 563 1088 563 1095 l 557 1096 q 518 1116 537 1116 q 473 1065 480 1116 q 504 989 473 1029 q 562 951 544 951 q 596 970 577 951 q 652 1071 652 1035 l 652 1082 q 616 1117 642 1117 l 609 1117 m 377 1082 q 363 1078 372 1082 q 351 1065 351 1069 l 347 1070 q 324 1082 335 1082 q 298 1051 302 1082 q 316 1007 298 1031 q 350 985 339 985 q 370 996 359 985 q 403 1055 403 1034 l 403 1062 q 382 1082 397 1082 l 377 1082 z "},"4":{"ha":1286,"x_min":34,"x_max":1253,"o":"m 715 1204 q 857 1062 857 1177 l 857 1038 q 604 730 857 950 q 509 635 509 641 l 722 635 q 873 801 770 801 l 912 801 q 1047 666 1047 760 l 1047 627 l 1071 627 q 1253 469 1253 611 l 1253 460 q 1118 310 1222 310 l 1023 310 q 968 18 1023 18 q 857 -38 968 -17 l 841 -38 q 683 144 707 -38 q 699 318 699 286 l 691 318 q 113 381 202 318 q 34 540 34 462 q 299 888 34 674 q 675 1204 609 1204 l 715 1204 m 205 576 q 192 572 201 576 q 179 559 179 564 l 176 564 q 153 576 163 576 q 126 545 130 576 q 144 501 126 525 q 178 479 168 479 q 198 490 187 479 q 231 549 231 528 l 231 556 q 210 576 225 576 l 205 576 m 374 789 q 349 782 364 789 q 328 760 328 766 l 322 768 q 283 787 302 787 q 238 736 245 787 q 269 661 238 701 q 327 623 309 623 q 361 642 342 623 q 417 743 417 707 l 417 753 q 381 789 406 789 l 374 789 m 524 912 q 511 908 519 912 q 498 895 498 899 l 494 900 q 471 911 482 911 q 445 881 449 911 q 463 837 445 861 q 497 814 486 814 q 517 826 506 814 q 550 885 550 864 l 550 892 q 529 912 544 912 l 524 912 z "},"5":{"ha":1049,"x_min":34,"x_max":1015,"o":"m 881 1228 q 1007 1086 1007 1190 l 1007 1062 q 659 896 1007 896 q 374 888 513 888 l 366 832 l 374 832 q 983 587 861 832 q 1015 452 1015 522 l 1015 445 q 596 18 1015 177 q 430 -14 492 -14 q 271 120 271 15 l 271 176 q 469 318 271 294 q 683 437 631 357 l 691 452 q 200 524 562 524 q 34 761 34 591 q 153 1157 76 1157 q 319 1213 204 1213 l 572 1213 q 881 1228 639 1213 m 797 339 q 783 335 792 339 q 770 322 770 326 l 767 327 q 744 338 755 338 q 718 308 722 338 q 736 264 718 288 q 770 241 759 241 q 789 253 779 241 q 823 312 823 291 l 823 319 q 802 339 817 339 l 797 339 m 888 571 q 863 564 878 571 q 842 543 842 549 l 836 550 q 797 570 816 570 q 752 519 759 570 q 783 443 752 483 q 841 405 823 405 q 875 425 856 405 q 931 525 931 489 l 931 536 q 895 571 920 571 l 888 571 m 705 688 q 691 684 700 688 q 678 671 678 675 l 675 676 q 652 688 663 688 q 625 657 629 688 q 644 613 625 637 q 677 591 667 591 q 697 602 686 591 q 730 661 730 640 l 730 668 q 709 688 724 688 l 705 688 z "},"6":{"ha":1136,"x_min":34,"x_max":1102,"o":"m 793 1252 l 833 1252 q 1007 1086 1007 1223 q 841 927 1007 943 q 525 825 625 927 l 564 832 l 580 832 q 1071 555 962 832 q 1102 413 1102 489 q 572 -14 1102 77 l 501 -14 q 42 397 126 -14 q 34 492 42 410 q 437 1157 34 885 q 793 1252 644 1252 m 359 469 l 359 445 q 493 302 380 302 l 517 302 q 778 405 694 302 l 778 413 q 604 516 778 501 l 359 469 m 254 385 q 241 380 250 385 q 228 368 228 372 l 224 372 q 201 384 212 384 q 175 353 179 384 q 193 309 175 333 q 227 287 216 287 q 247 298 236 287 q 280 357 280 336 l 280 364 q 259 385 274 385 l 254 385 m 276 657 q 252 650 267 657 q 230 629 230 635 l 224 636 q 185 656 204 656 q 140 605 147 656 q 171 529 140 569 q 229 491 211 491 q 263 511 244 491 q 319 611 319 575 l 319 622 q 283 657 309 657 l 276 657 m 326 872 q 312 868 321 872 q 299 855 299 859 l 296 860 q 273 871 283 871 q 246 841 250 871 q 264 797 246 821 q 298 774 288 774 q 318 786 307 774 q 351 845 351 824 l 351 852 q 330 872 345 872 l 326 872 z "},"7":{"ha":1152,"x_min":34,"x_max":1118,"o":"m 936 1252 q 1118 1070 1118 1209 q 817 524 1118 975 q 564 49 666 290 q 437 -14 500 -14 l 422 -14 q 264 168 279 -14 q 675 896 290 269 l 169 856 q 34 1006 64 856 l 34 1023 q 295 1181 34 1181 q 936 1252 642 1204 m 802 686 q 791 687 798 687 l 787 687 q 770 679 772 683 l 769 684 q 751 703 761 699 q 742 705 746 705 q 716 684 727 705 q 713 665 713 675 q 718 635 713 652 q 743 603 732 607 q 747 602 745 602 q 765 608 755 602 q 817 652 810 632 l 819 658 l 819 660 q 806 684 819 680 l 802 686 m 920 921 q 903 924 913 924 q 895 923 899 924 q 867 909 869 916 l 864 919 q 833 950 851 944 q 819 953 825 953 q 774 917 792 953 q 769 886 769 903 q 778 836 769 863 q 820 780 802 786 q 829 779 824 779 q 858 787 841 779 q 945 863 933 829 l 949 873 l 949 878 q 926 918 949 911 l 920 921 m 957 1109 q 948 1109 954 1109 l 942 1109 q 926 1102 927 1105 l 924 1107 q 906 1126 917 1122 q 897 1127 901 1127 q 871 1106 882 1127 q 869 1087 869 1097 q 873 1059 869 1074 q 898 1026 888 1029 q 904 1025 901 1025 q 921 1030 911 1025 q 972 1074 965 1055 l 974 1080 l 974 1082 q 961 1107 974 1102 l 957 1109 z "},"8":{"ha":1049,"x_min":34,"x_max":1015,"o":"m 635 1260 q 1007 1038 915 1260 l 1015 991 l 1015 927 q 865 627 1015 796 q 1007 342 1007 506 q 477 -30 1007 46 q 374 -38 439 -38 l 342 -38 q 58 128 133 -38 q 34 223 42 160 q 200 555 34 449 l 200 571 q 34 840 34 665 q 469 1244 34 1121 q 635 1260 607 1260 m 366 840 q 556 769 511 769 q 691 927 671 867 l 635 943 q 366 840 459 943 m 382 286 l 382 279 q 675 350 507 282 l 675 357 q 588 421 661 390 q 382 286 411 326 m 718 542 q 715 528 715 537 q 723 511 720 512 l 718 509 q 698 492 702 503 q 696 483 696 488 q 716 456 696 468 q 737 453 726 453 q 764 457 749 453 q 798 480 793 470 q 799 486 799 483 q 794 503 799 493 q 752 556 772 548 l 746 558 l 742 558 q 719 546 724 558 l 718 542 m 487 669 q 484 650 484 663 l 484 645 q 496 616 491 618 l 488 614 q 454 585 461 602 q 451 569 451 576 q 486 524 451 543 q 521 518 501 518 q 567 525 542 518 q 624 564 617 547 q 626 575 626 569 q 618 603 626 587 q 546 693 579 680 l 536 697 l 528 697 q 490 677 498 697 l 487 669 m 301 714 q 300 705 300 711 l 300 700 q 307 683 303 684 l 301 682 q 282 665 286 675 q 280 655 280 660 q 300 629 280 640 q 321 625 309 625 q 348 629 333 625 q 382 652 378 643 q 383 659 383 655 q 378 675 383 665 q 336 728 355 720 l 330 730 l 325 730 q 303 719 308 730 l 301 714 z "},"9":{"ha":1010,"x_min":34,"x_max":976,"o":"m 620 1244 q 960 1046 887 1244 l 976 935 l 881 49 q 715 -46 831 -46 q 572 113 610 -46 l 572 136 q 596 350 572 184 l 541 342 l 485 342 q 50 682 182 342 q 34 793 34 742 q 414 1213 34 1084 q 620 1244 507 1234 m 359 793 l 359 785 q 493 666 359 688 q 635 698 572 666 q 651 920 651 861 l 612 920 q 359 793 368 899 m 779 343 q 767 341 774 343 q 753 329 753 333 l 750 334 q 728 347 739 347 l 725 347 q 699 320 705 347 l 699 315 q 713 274 699 296 q 745 249 734 250 l 747 249 q 766 258 755 249 q 804 314 802 293 l 805 321 q 785 343 800 342 l 779 343 m 838 600 l 833 600 q 813 596 825 600 q 789 576 790 583 l 785 585 q 747 608 766 606 l 743 608 q 698 560 709 608 q 697 552 697 556 q 722 482 697 520 q 776 439 758 441 l 778 439 q 811 456 792 439 q 877 551 873 515 l 878 562 q 845 600 869 597 l 838 600 m 827 791 l 825 791 q 813 789 821 791 q 799 777 800 781 l 796 782 q 774 795 785 795 l 772 795 q 745 768 751 795 l 745 763 q 759 722 745 745 q 791 696 781 698 l 792 696 q 812 706 800 696 q 850 762 848 741 l 851 768 q 832 791 846 789 l 827 791 z "},"\u001d":{"ha":1394,"x_min":0,"x_max":0,"o":""},"\u0000":{"ha":0,"x_min":0,"x_max":0,"o":""}," ":{"ha":555,"x_min":0,"x_max":0,"o":""}," ":{"ha":555,"x_min":0,"x_max":0,"o":""},"!":{"ha":519,"x_min":34,"x_max":485,"o":"m 319 1252 l 335 1252 q 485 1094 461 1252 q 374 571 374 770 l 374 508 q 216 350 374 379 l 200 350 q 42 532 66 350 q 184 1173 54 846 q 319 1252 242 1252 m 200 271 l 216 271 q 390 144 357 271 l 390 89 q 232 -77 361 -77 l 184 -77 q 34 96 34 -54 q 200 271 63 271 m 241 693 q 227 689 236 693 q 214 676 214 680 l 211 681 q 188 692 199 692 q 161 662 165 692 q 180 618 161 642 q 214 595 203 595 q 233 607 222 595 q 267 666 267 645 l 267 673 q 245 693 260 693 l 241 693 m 315 928 q 306 928 311 928 q 290 927 299 928 q 264 911 265 917 l 260 920 q 227 947 245 943 q 216 949 220 949 q 171 908 186 949 q 169 888 169 898 q 183 827 169 861 q 231 777 214 781 q 237 777 233 777 q 269 788 250 777 q 347 873 338 838 l 349 884 q 322 926 347 920 l 315 928 m 348 1097 q 340 1098 345 1098 q 333 1097 337 1098 q 317 1089 318 1093 l 315 1095 q 297 1113 307 1109 q 289 1114 293 1114 q 262 1092 273 1114 q 260 1075 260 1084 q 266 1044 260 1061 q 292 1013 281 1016 q 296 1012 294 1012 q 314 1017 304 1012 q 363 1063 357 1043 l 366 1069 q 352 1095 366 1091 l 348 1097 z "},"\"":{"ha":812,"x_min":34,"x_max":778,"o":"m 184 1213 l 224 1213 q 359 1038 337 1213 l 359 896 q 208 642 359 642 l 184 642 q 42 769 86 642 q 34 856 34 823 l 34 1046 q 184 1213 63 1213 m 604 1213 l 635 1213 q 778 1054 754 1213 q 683 713 723 713 q 564 650 646 650 l 556 650 q 406 808 430 650 q 509 1173 473 1173 q 604 1213 553 1213 z "},"#":{"ha":1437,"x_min":34,"x_max":1403,"o":"m 1118 1244 l 1142 1244 q 1284 1101 1284 1213 l 1284 1023 l 1276 1006 q 1403 856 1403 957 q 1205 674 1403 690 l 1198 674 q 1174 571 1174 585 q 1356 421 1335 571 l 1356 381 q 1198 239 1356 280 q 1126 247 1154 247 l 1095 247 q 944 -85 1057 -85 q 920 -94 944 -94 l 881 -94 q 730 73 755 -94 q 770 247 739 129 l 564 247 q 342 -85 530 -85 q 184 65 184 -52 l 184 81 q 216 223 184 131 l 208 223 q 34 381 34 250 l 34 397 q 184 547 58 547 q 303 540 284 540 q 327 642 327 625 l 248 635 l 216 635 q 58 793 58 666 q 335 959 58 959 l 398 959 q 501 1204 440 1204 q 596 1236 532 1236 q 762 1086 762 1189 l 762 1046 q 746 975 762 1026 l 762 983 l 833 983 q 952 991 873 983 q 1118 1244 975 1244 m 659 659 q 635 564 635 585 l 849 564 q 873 666 873 656 q 659 659 852 666 m 1009 870 q 996 866 1004 870 q 983 853 983 857 l 979 858 q 956 869 967 869 q 930 839 934 869 q 948 795 930 819 q 982 772 971 772 q 1002 784 991 772 q 1035 843 1035 822 l 1035 850 q 1014 870 1029 870 l 1009 870 m 824 890 q 800 883 814 890 q 778 861 778 867 l 772 869 q 733 888 752 888 q 688 838 695 888 q 719 762 688 802 q 777 724 759 724 q 811 743 792 724 q 867 844 867 808 l 867 854 q 831 890 857 890 l 824 890 m 592 855 q 578 851 587 855 q 566 838 566 842 l 562 843 q 539 854 550 854 q 513 824 517 854 q 531 780 513 804 q 565 758 554 758 q 585 769 574 758 q 618 828 618 807 l 618 835 q 597 855 612 855 l 592 855 z "},"$":{"ha":1144,"x_min":34,"x_max":1110,"o":"m 376 1137 q 448 1415 393 1404 q 551 1462 488 1462 l 566 1462 q 717 1328 675 1462 l 717 1312 q 700 1195 706 1253 q 991 1015 916 1181 q 1007 920 1007 960 q 825 737 979 737 q 683 872 683 778 l 644 872 q 359 706 437 872 q 991 524 895 640 q 1110 334 1110 438 l 1110 286 q 685 -77 1110 28 q 675 -232 676 -152 l 673 -248 q 529 -353 616 -353 q 500 -351 515 -353 l 484 -348 q 392 -281 422 -336 q 361 -168 361 -269 q 363 -109 361 -141 l 335 -109 q 145 57 145 -88 q 295 215 172 215 l 469 215 q 762 286 636 215 q 279 389 762 334 q 34 674 34 471 l 34 698 q 303 1101 34 914 q 376 1137 339 1122 m 745 528 q 732 524 741 528 q 719 511 719 515 l 715 515 q 692 527 703 527 q 666 496 670 527 q 684 452 666 476 q 718 430 707 430 q 738 441 727 430 q 771 500 771 479 l 771 507 q 750 528 765 528 l 745 528 m 578 600 q 553 593 568 600 q 532 571 532 577 l 526 578 q 487 598 506 598 q 442 547 449 598 q 473 471 442 511 q 531 433 513 433 q 565 453 546 433 q 621 553 621 517 l 621 564 q 585 600 610 600 l 578 600 m 361 614 q 347 610 356 614 q 334 597 334 601 l 331 602 q 308 613 319 613 q 281 583 286 613 q 300 538 281 562 q 334 516 323 516 q 353 528 342 516 q 387 587 387 566 l 387 593 q 366 614 380 614 l 361 614 z "},"%":{"ha":1168,"x_min":34,"x_max":1134,"o":"m 976 1086 q 1134 935 1134 1059 l 1134 911 q 928 698 1134 810 q 485 262 682 521 q 208 -30 308 -30 l 176 -30 q 34 120 60 -30 l 34 128 q 200 381 34 211 q 651 872 264 519 q 976 1086 900 1086 m 271 1054 l 303 1054 q 461 896 461 1023 l 461 840 q 303 690 410 690 q 279 682 288 682 q 66 864 66 709 q 271 1054 66 1004 m 810 469 l 849 469 q 1007 294 984 469 l 1007 286 q 841 96 955 96 l 810 96 q 635 271 635 125 q 810 469 674 469 m 416 456 q 402 452 411 456 q 389 439 389 443 l 386 444 q 363 455 374 455 q 336 425 340 455 q 355 380 336 404 q 389 358 378 358 q 408 370 397 358 q 441 429 441 408 l 441 435 q 420 456 435 456 l 416 456 m 587 648 q 562 642 577 648 q 541 620 541 626 l 535 627 q 496 647 515 647 q 451 596 458 647 q 481 520 451 560 q 540 482 522 482 q 574 502 555 482 q 630 602 630 566 l 630 613 q 594 648 619 648 l 587 648 m 743 781 q 729 777 738 781 q 716 764 716 768 l 713 768 q 690 780 701 780 q 663 749 667 780 q 682 705 663 729 q 715 683 705 683 q 735 694 724 683 q 768 753 768 732 l 768 760 q 747 781 762 781 l 743 781 z "},"&":{"ha":1326,"x_min":34,"x_max":1293,"o":"m 541 1220 l 635 1220 q 968 975 879 1220 q 976 903 976 932 l 976 888 q 786 690 941 690 q 644 832 644 726 l 644 896 l 588 903 q 446 848 463 903 q 596 706 446 762 q 659 579 659 645 l 659 564 q 446 397 659 422 q 359 342 393 397 q 564 294 448 294 q 786 508 729 294 q 912 579 846 579 l 936 579 q 1142 357 1057 579 q 1293 113 1293 227 q 1150 -30 1251 -30 l 1118 -30 q 920 113 1037 -30 q 549 -22 778 -22 q 34 279 128 -22 l 34 357 q 184 635 34 492 q 121 848 121 758 q 541 1220 121 1172 m 292 511 q 279 507 288 511 q 266 494 266 498 l 262 499 q 239 511 250 511 q 213 480 217 511 q 231 436 213 460 q 265 414 254 414 q 285 425 274 414 q 318 484 318 463 l 318 491 q 297 511 312 511 l 292 511 m 488 661 q 464 654 479 661 q 442 632 442 638 l 437 640 q 397 659 416 659 q 353 608 359 659 q 383 532 353 572 q 441 494 423 494 q 475 514 456 494 q 532 614 532 578 l 532 625 q 496 661 521 661 l 488 661 m 340 823 q 327 819 336 823 q 314 806 314 810 l 311 811 q 288 823 298 823 q 261 792 265 823 q 279 748 261 772 q 313 726 302 726 q 333 737 322 726 q 366 796 366 775 l 366 803 q 345 823 360 823 l 340 823 z "},"'":{"ha":393,"x_min":34,"x_max":359,"o":"m 200 1252 l 208 1252 q 359 1133 311 1252 l 359 1125 q 351 825 351 907 q 200 682 351 711 l 184 682 q 34 840 61 682 q 81 1204 34 1155 q 200 1252 149 1252 z "},"(":{"ha":756,"x_min":34,"x_max":722,"o":"m 564 1260 q 722 1101 722 1236 q 525 903 722 977 q 359 564 359 748 l 359 555 q 580 247 359 377 q 620 128 620 178 q 461 -30 589 -30 l 446 -30 q 90 294 282 -30 q 34 516 34 425 l 34 587 q 366 1189 34 928 q 564 1260 514 1260 m 260 391 q 247 387 256 391 q 234 374 234 378 l 231 378 q 208 390 218 390 q 181 359 185 390 q 199 315 181 339 q 233 293 222 293 q 253 304 242 293 q 286 363 286 342 l 286 370 q 265 391 280 391 l 260 391 m 259 646 q 235 639 250 646 q 213 617 213 623 l 208 625 q 168 644 187 644 q 123 593 130 644 q 154 517 123 557 q 212 479 194 479 q 246 499 227 479 q 302 600 302 564 l 302 610 q 267 646 292 646 l 259 646 m 254 838 q 241 833 250 838 q 228 821 228 825 l 224 825 q 201 837 212 837 q 175 806 179 837 q 193 762 175 786 q 227 740 216 740 q 247 751 236 740 q 280 810 280 789 l 280 817 q 259 838 274 838 l 254 838 z "},")":{"ha":741,"x_min":34,"x_max":707,"o":"m 184 1276 l 200 1276 q 572 1015 372 1235 q 707 627 707 808 q 351 41 707 306 q 224 -14 279 -14 l 193 -14 q 42 152 71 -14 q 224 350 42 260 q 374 603 374 496 l 374 659 q 264 872 368 757 q 34 1094 34 1010 l 34 1141 q 184 1276 34 1245 m 496 411 q 482 407 491 411 q 469 394 469 398 l 466 399 q 443 410 454 410 q 416 380 420 410 q 435 336 416 359 q 469 313 458 313 q 488 325 477 313 q 522 384 522 363 l 522 391 q 500 411 515 411 l 496 411 m 574 660 q 550 653 565 660 q 528 631 528 637 l 523 639 q 484 659 503 659 q 439 608 446 659 q 469 532 439 572 q 528 494 509 494 q 562 513 543 494 q 618 614 618 578 l 618 625 q 582 660 607 660 l 574 660 m 535 857 q 522 853 530 857 q 509 840 509 844 l 505 845 q 482 857 493 857 q 456 826 460 857 q 474 782 456 806 q 508 760 497 760 q 528 771 517 760 q 561 830 561 809 l 561 837 q 540 857 555 857 l 535 857 z "},"*":{"ha":1073,"x_min":34,"x_max":1039,"o":"m 572 1125 q 730 935 713 1125 q 881 983 808 983 l 905 983 q 1039 825 1007 983 q 865 650 1039 713 l 865 642 q 944 500 923 642 q 778 350 944 369 q 667 389 740 350 q 509 247 667 274 l 493 247 q 351 397 351 291 q 232 357 269 357 l 193 357 q 58 524 82 357 q 153 650 93 650 l 153 659 q 34 817 34 718 q 169 975 63 975 l 208 975 q 398 888 245 975 l 406 888 l 406 935 q 525 1118 406 1079 q 572 1125 530 1118 m 547 473 q 534 469 543 473 q 521 456 521 460 l 517 461 q 494 473 505 473 q 468 442 472 473 q 486 398 468 422 q 520 376 509 376 q 540 387 529 376 q 573 446 573 425 l 573 453 q 552 473 567 473 l 547 473 m 592 732 q 568 725 583 732 q 546 703 546 709 l 541 711 q 501 730 520 730 q 456 680 463 730 q 487 604 456 644 q 545 566 527 566 q 579 585 560 566 q 635 686 635 650 l 635 696 q 600 732 625 732 l 592 732 m 587 924 q 574 920 583 924 q 561 907 561 911 l 557 911 q 534 923 545 923 q 508 892 512 923 q 526 848 508 872 q 560 826 549 826 q 580 838 569 826 q 613 897 613 876 l 613 903 q 592 924 607 924 l 587 924 z "},"+":{"ha":1247,"x_min":34,"x_max":1213,"o":"m 596 1133 l 612 1133 q 770 896 770 1133 l 770 785 l 991 785 q 1205 666 1158 785 q 1213 618 1205 661 q 1095 460 1213 511 l 1055 452 q 786 469 920 469 l 786 286 q 659 57 786 92 l 588 57 q 454 199 492 57 q 469 460 454 224 q 176 429 245 429 q 34 587 73 429 l 34 595 q 311 761 34 761 q 454 769 355 769 l 454 777 l 437 975 q 596 1133 469 1133 m 861 674 q 847 670 856 674 q 834 657 834 661 l 831 662 q 808 673 819 673 q 781 643 785 673 q 800 599 781 623 q 833 576 823 576 q 853 588 842 576 q 886 647 886 626 l 886 654 q 865 674 880 674 l 861 674 m 675 694 q 651 687 666 694 q 629 665 629 671 l 624 673 q 585 692 604 692 q 540 642 547 692 q 570 566 540 606 q 629 528 610 528 q 663 547 644 528 q 719 648 719 612 l 719 659 q 683 694 708 694 l 675 694 m 444 659 q 430 655 439 659 q 417 642 417 646 l 414 647 q 391 659 401 659 q 364 628 368 659 q 382 584 364 608 q 416 562 406 562 q 436 573 425 562 q 469 632 469 611 l 469 639 q 448 659 463 659 l 444 659 z "},",":{"ha":448,"x_min":34,"x_max":414,"o":"m 216 508 q 414 262 378 508 l 414 239 q 271 -46 414 65 q 208 -62 243 -62 l 184 -62 q 34 89 34 -35 l 34 113 q 81 247 34 138 q 58 334 58 308 l 58 357 q 216 508 58 481 z "},"-":{"ha":1105,"x_min":34,"x_max":1071,"o":"m 739 785 l 833 785 q 1071 618 1071 785 l 1071 611 q 952 460 1071 509 q 912 452 926 460 q 627 469 787 469 q 216 421 495 469 l 193 421 q 34 579 34 448 q 200 737 34 716 q 739 785 504 785 m 777 663 q 764 659 772 663 q 751 646 751 650 l 747 650 q 724 662 735 662 q 698 631 702 662 q 716 587 698 611 q 750 565 739 565 q 770 576 759 565 q 803 635 803 614 l 803 642 q 782 663 797 663 l 777 663 m 592 682 q 568 675 583 682 q 546 654 546 660 l 541 661 q 501 681 520 681 q 456 630 463 681 q 487 554 456 594 q 545 516 527 516 q 579 536 560 516 q 635 636 635 600 l 635 647 q 600 682 625 682 l 592 682 m 360 648 q 347 644 355 648 q 334 631 334 635 l 330 635 q 307 647 318 647 q 281 616 285 647 q 299 572 281 596 q 333 550 322 550 q 353 562 342 550 q 386 621 386 600 l 386 627 q 365 648 380 648 l 360 648 z "},".":{"ha":440,"x_min":34,"x_max":406,"o":"m 224 469 q 406 294 406 437 q 256 113 388 113 l 232 113 q 58 215 110 113 q 34 294 34 278 q 224 469 73 469 z "},"/":{"ha":907,"x_min":34,"x_max":873,"o":"m 699 1228 l 730 1228 q 873 1070 873 1190 l 873 1054 q 699 793 873 981 q 319 49 450 387 q 200 -14 260 -14 l 176 -14 q 34 128 34 13 l 34 168 q 469 1023 34 299 q 699 1228 604 1228 m 335 444 q 321 448 330 447 q 304 442 305 446 l 303 448 q 288 469 298 463 q 276 471 282 471 q 250 454 263 471 q 244 425 244 441 q 245 406 244 416 q 266 371 256 376 q 275 369 269 369 q 289 372 281 369 q 346 409 336 390 l 349 414 q 349 422 349 418 q 339 442 349 437 l 335 444 m 485 661 q 460 666 477 665 q 431 657 434 663 l 430 666 q 404 702 420 693 q 385 707 394 707 q 340 677 361 707 q 330 629 330 656 q 333 596 330 614 q 366 535 351 544 q 380 532 372 532 q 406 537 391 532 q 503 600 486 568 l 507 610 q 509 625 509 618 q 492 657 509 649 l 485 661 m 548 842 q 534 844 543 844 q 516 839 518 842 l 515 844 q 500 865 510 861 q 489 868 494 868 q 463 851 475 868 q 456 822 456 839 q 458 803 456 813 q 478 768 469 772 q 487 766 482 766 q 501 768 493 766 q 558 806 549 787 l 561 811 q 562 821 562 817 q 552 840 562 834 l 548 842 z "},":":{"ha":424,"x_min":34,"x_max":390,"o":"m 176 848 l 232 848 q 382 674 340 848 l 382 659 q 224 508 382 532 l 208 508 q 42 674 42 545 l 42 698 q 176 848 73 848 m 208 476 q 390 326 390 437 l 390 286 q 224 120 353 120 l 208 120 q 42 262 94 120 q 34 302 34 276 q 193 476 34 418 l 208 476 z "},";":{"ha":464,"x_min":34,"x_max":430,"o":"m 240 848 q 390 730 325 848 q 406 674 406 690 q 232 492 366 492 l 216 492 q 42 650 81 508 l 42 706 q 240 848 42 823 m 264 460 q 422 302 422 439 q 430 262 430 289 q 224 -77 430 -11 q 193 -85 206 -77 q 34 73 34 -52 l 34 89 q 98 223 34 139 q 264 460 98 460 z "},"<":{"ha":780,"x_min":34,"x_max":746,"o":"m 572 959 l 604 959 q 746 808 720 959 l 746 801 q 525 579 746 669 l 525 571 q 707 350 707 488 q 564 208 668 208 l 532 208 q 279 342 486 208 q 34 587 34 460 l 34 603 q 295 817 34 742 q 532 951 433 886 q 572 959 546 959 m 433 471 q 419 467 428 471 q 406 454 406 458 l 403 459 q 380 471 391 471 q 353 440 357 471 q 372 396 353 420 q 406 374 395 374 q 425 385 414 374 q 458 444 458 423 l 458 451 q 437 471 452 471 l 433 471 m 296 646 q 272 639 287 646 q 250 617 250 623 l 245 625 q 205 644 224 644 q 161 593 168 644 q 191 517 161 557 q 250 479 231 479 q 283 499 264 479 q 340 600 340 564 l 340 610 q 304 646 329 646 l 296 646 m 455 780 q 441 776 450 780 q 429 763 429 767 l 425 768 q 402 779 413 779 q 376 749 380 779 q 394 705 376 728 q 428 682 417 682 q 448 694 437 682 q 481 753 481 732 l 481 760 q 460 780 475 780 l 455 780 z "},"=":{"ha":883,"x_min":34,"x_max":849,"o":"m 635 1006 q 825 888 777 1006 l 825 817 q 683 682 825 723 q 493 690 572 690 q 193 659 390 690 q 34 808 34 682 l 34 825 q 169 975 34 933 q 635 1006 485 1006 m 461 587 q 802 532 746 587 q 849 413 849 458 q 683 255 849 284 q 461 271 591 271 l 382 271 q 232 255 248 255 q 74 413 74 281 q 398 587 74 587 l 461 587 m 665 884 q 652 880 661 884 q 639 867 639 871 l 635 872 q 612 884 623 884 q 586 853 590 884 q 604 809 586 833 q 638 787 627 787 q 658 798 647 787 q 691 857 691 836 l 691 864 q 670 884 685 884 l 665 884 m 471 932 q 447 926 462 932 q 425 904 425 910 l 420 911 q 380 931 399 931 q 336 880 342 931 q 366 804 336 844 q 425 766 406 766 q 458 786 439 766 q 515 886 515 850 l 515 897 q 479 932 504 932 l 471 932 m 231 875 q 218 871 227 875 q 205 858 205 862 l 201 863 q 178 874 189 874 q 152 844 156 874 q 170 800 152 823 q 204 777 193 777 q 224 789 213 777 q 257 848 257 827 l 257 854 q 236 875 251 875 l 231 875 z "},">":{"ha":836,"x_min":34,"x_max":802,"o":"m 193 999 l 200 999 q 414 903 238 999 q 786 713 733 799 q 802 642 802 663 l 802 595 q 493 342 802 491 q 256 199 325 199 l 232 199 q 90 342 90 227 l 90 366 q 311 595 90 481 l 311 603 q 34 840 34 695 q 193 999 65 999 m 447 505 q 433 501 442 505 q 420 488 420 492 l 417 493 q 394 505 405 505 q 368 474 372 505 q 386 430 368 454 q 420 408 409 408 q 439 419 429 408 q 473 478 473 457 l 473 485 q 452 505 467 505 l 447 505 m 646 683 q 622 676 637 683 q 600 654 600 661 l 595 662 q 555 682 574 682 q 511 631 517 682 q 541 555 511 595 q 600 517 581 517 q 633 536 614 517 q 690 637 690 601 l 690 648 q 654 683 679 683 l 646 683 m 432 804 q 418 800 427 804 q 406 787 406 791 l 402 791 q 379 803 390 803 q 353 772 357 803 q 371 728 353 752 q 405 706 394 706 q 425 718 414 706 q 458 777 458 755 l 458 783 q 437 804 452 804 l 432 804 z "},"?":{"ha":1120,"x_min":34,"x_max":1086,"o":"m 580 1189 q 1071 943 975 1176 q 1086 872 1086 892 l 1086 825 q 722 508 1086 621 q 572 318 686 318 l 525 318 q 382 484 416 318 l 382 500 q 715 848 382 739 l 715 856 q 572 872 635 872 l 549 872 q 216 785 373 872 l 193 785 q 34 943 34 812 q 422 1181 34 1131 q 580 1189 529 1189 m 564 262 l 596 262 q 762 96 762 231 l 762 89 q 564 -77 762 -55 q 398 49 450 -77 l 398 104 q 564 262 398 228 m 827 1038 q 813 1034 822 1038 q 800 1021 800 1025 l 797 1025 q 774 1037 785 1037 q 747 1006 751 1037 q 766 962 747 986 q 800 940 789 940 q 819 951 808 940 q 852 1010 852 989 l 852 1017 q 831 1038 846 1038 l 827 1038 m 625 1104 q 600 1097 615 1104 q 578 1076 578 1082 l 573 1083 q 534 1103 553 1103 q 489 1052 496 1103 q 519 976 489 1016 q 578 938 559 938 q 612 958 593 938 q 668 1058 668 1022 l 668 1069 q 632 1104 657 1104 l 625 1104 m 368 1047 q 355 1043 363 1047 q 342 1030 342 1034 l 338 1035 q 315 1046 326 1046 q 289 1016 293 1046 q 307 972 289 996 q 341 949 330 949 q 361 961 350 949 q 394 1020 394 999 l 394 1027 q 373 1047 388 1047 l 368 1047 z "},"@":{"ha":1398,"x_min":34,"x_max":1364,"o":"m 833 1196 l 849 1196 q 1245 943 1139 1196 q 1261 856 1261 912 l 1261 848 q 802 381 1261 525 l 699 381 q 525 555 525 425 l 525 564 q 691 722 525 695 q 770 706 763 706 q 936 817 835 706 l 936 840 q 817 880 918 880 q 390 587 605 880 q 351 460 359 511 q 580 318 380 318 q 651 310 580 310 q 1190 437 860 310 l 1213 437 q 1364 286 1364 408 l 1364 255 q 722 1 1364 75 l 627 1 q 58 326 186 1 q 34 452 42 389 q 430 1062 34 769 q 833 1196 631 1196 m 800 201 q 786 197 795 201 q 773 184 773 189 l 770 189 q 747 201 758 201 q 720 170 724 201 q 739 126 720 150 q 772 104 762 104 q 792 115 781 104 q 825 174 825 153 l 825 181 q 804 201 819 201 l 800 201 m 1042 270 q 1018 263 1033 270 q 996 241 996 248 l 991 249 q 951 269 970 269 q 907 218 913 269 q 937 142 907 182 q 996 104 977 104 q 1029 123 1010 104 q 1086 224 1086 188 l 1086 235 q 1050 270 1075 270 l 1042 270 m 1216 327 q 1202 323 1211 327 q 1190 310 1190 314 l 1186 315 q 1163 326 1174 326 q 1137 296 1141 326 q 1155 252 1137 275 q 1189 229 1178 229 q 1208 241 1198 229 q 1242 300 1242 279 l 1242 307 q 1221 327 1236 327 l 1216 327 z "},"A":{"ha":1279,"x_min":34,"x_max":1245,"o":"m 651 1228 l 675 1228 q 905 920 810 1228 q 1245 208 1095 486 l 1245 144 q 1086 1 1245 43 q 865 247 944 1 q 406 176 406 201 q 208 -70 313 -70 l 169 -70 q 34 65 34 -31 l 34 104 q 295 706 34 144 q 532 1173 491 1137 q 651 1228 593 1228 m 644 706 l 572 540 l 580 540 q 722 555 699 555 q 644 706 659 706 m 901 455 q 888 451 897 455 q 875 438 875 442 l 871 443 q 848 454 859 454 q 822 424 826 454 q 840 380 822 404 q 874 357 863 357 q 894 369 883 357 q 927 428 927 407 l 927 435 q 906 455 921 455 l 901 455 m 685 461 q 661 454 675 461 q 639 433 639 439 l 633 440 q 594 460 613 460 q 549 409 556 460 q 580 333 549 373 q 638 295 620 295 q 672 315 653 295 q 728 415 728 379 l 728 426 q 692 461 718 461 l 685 461 m 429 404 q 415 400 424 404 q 402 387 402 391 l 399 392 q 376 404 387 404 q 349 373 353 404 q 368 329 349 353 q 401 307 391 307 q 421 318 410 307 q 454 377 454 356 l 454 384 q 433 404 448 404 l 429 404 z "},"a":{"ha":1279,"x_min":34,"x_max":1245,"o":"m 651 1228 l 675 1228 q 905 920 810 1228 q 1245 208 1095 486 l 1245 144 q 1086 1 1245 43 q 865 247 944 1 q 406 176 406 201 q 208 -70 313 -70 l 169 -70 q 34 65 34 -31 l 34 104 q 295 706 34 144 q 532 1173 491 1137 q 651 1228 593 1228 m 644 706 l 572 540 l 580 540 q 722 555 699 555 q 644 706 659 706 m 901 455 q 888 451 897 455 q 875 438 875 442 l 871 443 q 848 454 859 454 q 822 424 826 454 q 840 380 822 404 q 874 357 863 357 q 894 369 883 357 q 927 428 927 407 l 927 435 q 906 455 921 455 l 901 455 m 685 461 q 661 454 675 461 q 639 433 639 439 l 633 440 q 594 460 613 460 q 549 409 556 460 q 580 333 549 373 q 638 295 620 295 q 672 315 653 295 q 728 415 728 379 l 728 426 q 692 461 718 461 l 685 461 m 429 404 q 415 400 424 404 q 402 387 402 391 l 399 392 q 376 404 387 404 q 349 373 353 404 q 368 329 349 353 q 401 307 391 307 q 421 318 410 307 q 454 377 454 356 l 454 384 q 433 404 448 404 l 429 404 z "},"B":{"ha":1208,"x_min":34,"x_max":1174,"o":"m 501 1252 q 976 975 853 1252 q 1000 848 1000 888 q 968 690 991 761 q 1174 374 1174 568 q 746 -38 1174 101 q 469 -70 576 -70 l 454 -70 q 303 -54 366 -70 q 216 -62 260 -62 q 74 96 117 -62 q 34 635 34 343 l 34 848 q 335 1228 34 1131 q 501 1252 481 1252 m 359 713 q 675 848 675 735 q 501 927 675 918 q 359 825 359 927 l 359 713 m 366 374 q 414 255 366 255 l 485 255 q 841 374 738 255 q 707 421 810 421 l 683 421 q 366 374 586 421 m 736 659 q 722 654 730 659 q 710 641 710 644 l 707 645 q 684 654 694 654 l 683 654 q 659 622 661 652 q 680 579 661 602 q 715 560 704 560 l 716 560 q 735 573 725 561 q 764 633 764 612 l 764 635 l 763 641 q 742 660 755 660 l 740 660 l 736 659 m 540 659 q 517 650 531 658 q 496 627 496 633 l 490 633 q 454 650 471 650 l 450 650 q 410 595 412 647 q 446 522 412 560 q 505 489 488 489 l 507 489 q 539 511 522 490 q 587 612 587 576 l 587 616 l 587 627 q 551 659 573 659 l 548 659 l 540 659 m 299 592 q 286 587 294 591 q 274 573 274 577 l 270 577 q 249 587 258 587 l 246 587 q 222 555 224 585 q 244 512 224 534 q 279 492 269 492 l 279 492 q 298 505 288 493 q 327 564 327 543 l 327 567 l 326 574 q 306 592 319 592 l 299 592 z "},"b":{"ha":1208,"x_min":34,"x_max":1174,"o":"m 501 1252 q 976 975 853 1252 q 1000 848 1000 888 q 968 690 991 761 q 1174 374 1174 568 q 746 -38 1174 101 q 469 -70 576 -70 l 454 -70 q 303 -54 366 -70 q 216 -62 260 -62 q 74 96 117 -62 q 34 635 34 343 l 34 848 q 335 1228 34 1131 q 501 1252 481 1252 m 359 713 q 675 848 675 735 q 501 927 675 918 q 359 825 359 927 l 359 713 m 366 374 q 414 255 366 255 l 485 255 q 841 374 738 255 q 707 421 810 421 l 683 421 q 366 374 586 421 m 736 659 q 722 654 730 659 q 710 641 710 644 l 707 645 q 684 654 694 654 l 683 654 q 659 622 661 652 q 680 579 661 602 q 715 560 704 560 l 716 560 q 735 573 725 561 q 764 633 764 612 l 764 635 l 763 641 q 742 660 755 660 l 740 660 l 736 659 m 540 659 q 517 650 531 658 q 496 627 496 633 l 490 633 q 454 650 471 650 l 450 650 q 410 595 412 647 q 446 522 412 560 q 505 489 488 489 l 507 489 q 539 511 522 490 q 587 612 587 576 l 587 616 l 587 627 q 551 659 573 659 l 548 659 l 540 659 m 299 592 q 286 587 294 591 q 274 573 274 577 l 270 577 q 249 587 258 587 l 246 587 q 222 555 224 585 q 244 512 224 534 q 279 492 269 492 l 279 492 q 298 505 288 493 q 327 564 327 543 l 327 567 l 326 574 q 306 592 319 592 l 299 592 z "},"C":{"ha":1350,"x_min":34,"x_max":1316,"o":"m 786 1213 l 857 1213 q 1118 1015 1074 1213 l 1118 999 q 960 848 1118 869 l 810 896 q 406 674 581 896 q 351 508 351 593 l 351 492 q 509 310 351 368 q 620 294 568 294 q 1102 452 816 294 q 1174 460 1145 460 q 1316 302 1278 460 q 1221 152 1316 213 q 604 -22 884 -22 q 74 294 246 -22 q 34 508 34 404 l 34 524 q 264 991 34 762 q 786 1213 526 1213 m 267 364 q 255 355 262 362 q 249 339 249 343 l 249 338 l 244 340 q 229 343 236 343 q 218 341 223 343 q 205 319 205 334 q 208 302 205 311 q 243 270 216 283 q 275 263 264 263 q 283 264 281 263 q 296 283 292 268 q 304 331 304 313 q 301 351 304 343 l 298 357 q 278 368 288 368 q 271 366 274 368 l 267 364 m 233 613 q 209 606 224 613 q 187 585 187 591 l 182 592 q 142 612 161 612 q 98 561 104 612 q 128 485 98 525 q 186 447 168 447 q 220 467 201 447 q 277 567 277 531 l 277 578 q 241 613 266 613 l 233 613 m 315 790 q 301 793 311 793 q 284 786 286 789 l 283 791 q 267 812 277 807 q 256 814 261 814 q 231 795 242 814 q 226 770 226 784 q 229 747 226 760 q 250 713 241 717 q 258 711 254 711 q 273 715 264 711 q 328 755 319 736 l 331 761 l 331 766 q 320 789 331 783 l 315 790 z "},"c":{"ha":1350,"x_min":34,"x_max":1316,"o":"m 786 1213 l 857 1213 q 1118 1015 1074 1213 l 1118 999 q 960 848 1118 869 l 810 896 q 406 674 581 896 q 351 508 351 593 l 351 492 q 509 310 351 368 q 620 294 568 294 q 1102 452 816 294 q 1174 460 1145 460 q 1316 302 1278 460 q 1221 152 1316 213 q 604 -22 884 -22 q 74 294 246 -22 q 34 508 34 404 l 34 524 q 264 991 34 762 q 786 1213 526 1213 m 267 364 q 255 355 262 362 q 249 339 249 343 l 249 338 l 244 340 q 229 343 236 343 q 218 341 223 343 q 205 319 205 334 q 208 302 205 311 q 243 270 216 283 q 275 263 264 263 q 283 264 281 263 q 296 283 292 268 q 304 331 304 313 q 301 351 304 343 l 298 357 q 278 368 288 368 q 271 366 274 368 l 267 364 m 233 613 q 209 606 224 613 q 187 585 187 591 l 182 592 q 142 612 161 612 q 98 561 104 612 q 128 485 98 525 q 186 447 168 447 q 220 467 201 447 q 277 567 277 531 l 277 578 q 241 613 266 613 l 233 613 m 315 790 q 301 793 311 793 q 284 786 286 789 l 283 791 q 267 812 277 807 q 256 814 261 814 q 231 795 242 814 q 226 770 226 784 q 229 747 226 760 q 250 713 241 717 q 258 711 254 711 q 273 715 264 711 q 328 755 319 736 l 331 761 l 331 766 q 320 789 331 783 l 315 790 z "},"D":{"ha":1152,"x_min":34,"x_max":1118,"o":"m 477 1276 q 1023 959 806 1276 q 1118 603 1118 761 q 730 1 1118 214 q 454 -54 588 -54 q 279 -30 315 -46 q 232 -46 254 -46 l 176 -46 q 42 152 42 -22 q 34 777 42 366 q 477 1276 34 1276 m 359 745 q 366 286 359 682 q 477 271 409 271 q 778 492 682 271 q 793 587 793 547 l 793 627 q 556 943 793 854 q 485 951 513 951 l 461 951 q 366 840 366 951 q 359 745 359 800 m 229 405 q 215 401 224 405 q 202 388 202 392 l 199 393 q 176 404 186 404 q 149 374 153 404 q 168 330 149 353 q 201 307 191 307 q 221 319 210 307 q 254 378 254 357 l 254 385 q 233 405 248 405 l 229 405 m 262 666 q 237 659 252 666 q 216 637 216 644 l 210 645 q 171 665 190 665 q 126 614 133 665 q 157 538 126 578 q 215 500 197 500 q 249 519 230 500 q 305 620 305 584 l 305 631 q 269 666 294 666 l 262 666 m 234 855 q 220 851 229 855 q 208 838 208 842 l 204 843 q 181 854 192 854 q 155 824 159 854 q 173 780 155 804 q 207 758 196 758 q 227 769 216 758 q 260 828 260 807 l 260 835 q 239 855 254 855 l 234 855 z "},"d":{"ha":1152,"x_min":34,"x_max":1118,"o":"m 477 1276 q 1023 959 806 1276 q 1118 603 1118 761 q 730 1 1118 214 q 454 -54 588 -54 q 279 -30 315 -46 q 232 -46 254 -46 l 176 -46 q 42 152 42 -22 q 34 777 42 366 q 477 1276 34 1276 m 359 745 q 366 286 359 682 q 477 271 409 271 q 778 492 682 271 q 793 587 793 547 l 793 627 q 556 943 793 854 q 485 951 513 951 l 461 951 q 366 840 366 951 q 359 745 359 800 m 229 405 q 215 401 224 405 q 202 388 202 392 l 199 393 q 176 404 186 404 q 149 374 153 404 q 168 330 149 353 q 201 307 191 307 q 221 319 210 307 q 254 378 254 357 l 254 385 q 233 405 248 405 l 229 405 m 262 666 q 237 659 252 666 q 216 637 216 644 l 210 645 q 171 665 190 665 q 126 614 133 665 q 157 538 126 578 q 215 500 197 500 q 249 519 230 500 q 305 620 305 584 l 305 631 q 269 666 294 666 l 262 666 m 234 855 q 220 851 229 855 q 208 838 208 842 l 204 843 q 181 854 192 854 q 155 824 159 854 q 173 780 155 804 q 207 758 196 758 q 227 769 216 758 q 260 828 260 807 l 260 835 q 239 855 254 855 l 234 855 z "},"E":{"ha":1034,"x_min":34,"x_max":1000,"o":"m 754 1204 l 865 1204 q 1000 1070 1000 1163 l 1000 1023 q 865 888 958 888 l 778 888 q 398 825 398 888 l 374 737 l 382 737 q 675 753 598 753 q 833 587 807 753 q 604 429 833 429 q 351 413 527 429 q 374 239 351 408 q 841 294 772 294 q 983 128 950 294 q 778 -30 960 -30 q 311 -94 574 -54 q 58 191 113 -94 q 34 445 34 318 q 288 1157 34 1046 q 754 1204 420 1204 m 243 382 q 230 378 239 382 q 217 365 217 369 l 214 370 q 191 381 201 381 q 164 351 168 381 q 182 307 164 330 q 216 284 205 284 q 236 296 225 284 q 269 355 269 334 l 269 361 q 248 382 263 382 l 243 382 m 242 640 q 218 633 233 640 q 196 611 196 617 l 191 618 q 151 638 170 638 q 106 587 113 638 q 137 511 106 551 q 195 473 177 473 q 229 493 210 473 q 286 593 286 557 l 286 604 q 250 640 275 640 l 242 640 m 246 838 q 233 833 241 838 q 220 821 220 825 l 216 825 q 193 837 204 837 q 167 806 171 837 q 185 762 167 786 q 219 740 208 740 q 239 751 228 740 q 272 810 272 789 l 272 817 q 251 838 266 838 l 246 838 z "},"e":{"ha":1034,"x_min":34,"x_max":1000,"o":"m 754 1204 l 865 1204 q 1000 1070 1000 1163 l 1000 1023 q 865 888 958 888 l 778 888 q 398 825 398 888 l 374 737 l 382 737 q 675 753 598 753 q 833 587 807 753 q 604 429 833 429 q 351 413 527 429 q 374 239 351 408 q 841 294 772 294 q 983 128 950 294 q 778 -30 960 -30 q 311 -94 574 -54 q 58 191 113 -94 q 34 445 34 318 q 288 1157 34 1046 q 754 1204 420 1204 m 243 382 q 230 378 239 382 q 217 365 217 369 l 214 370 q 191 381 201 381 q 164 351 168 381 q 182 307 164 330 q 216 284 205 284 q 236 296 225 284 q 269 355 269 334 l 269 361 q 248 382 263 382 l 243 382 m 242 640 q 218 633 233 640 q 196 611 196 617 l 191 618 q 151 638 170 638 q 106 587 113 638 q 137 511 106 551 q 195 473 177 473 q 229 493 210 473 q 286 593 286 557 l 286 604 q 250 640 275 640 l 242 640 m 246 838 q 233 833 241 838 q 220 821 220 825 l 216 825 q 193 837 204 837 q 167 806 171 837 q 185 762 167 786 q 219 740 208 740 q 239 751 228 740 q 272 810 272 789 l 272 817 q 251 838 266 838 l 246 838 z "},"F":{"ha":1041,"x_min":34,"x_max":1007,"o":"m 572 1244 l 612 1244 q 944 1204 944 1244 q 1007 1086 1007 1161 l 1007 1054 q 857 920 1007 950 l 849 920 q 541 927 715 920 q 359 856 359 914 q 351 753 359 851 l 722 753 q 873 595 846 753 q 715 437 846 437 l 398 437 l 398 429 q 446 81 446 171 q 279 -85 404 -85 l 271 -85 q 121 33 172 -85 q 34 713 121 117 l 34 808 q 248 1189 34 1097 q 572 1244 382 1244 m 267 392 q 253 387 262 391 q 241 373 241 376 l 238 377 q 216 387 226 387 l 214 387 q 191 354 192 385 q 212 311 193 333 q 247 292 237 292 l 248 292 q 267 305 257 293 q 295 365 295 344 l 295 368 l 294 374 q 273 392 287 392 l 267 392 m 258 659 q 235 650 250 657 q 216 627 216 633 l 216 626 l 210 633 q 171 649 189 649 l 168 649 q 128 593 130 646 q 165 522 132 559 q 225 488 208 488 l 227 488 q 258 511 242 490 q 307 612 307 577 l 307 616 l 305 627 q 269 659 292 659 l 267 659 l 258 659 m 214 844 q 201 839 209 844 q 189 825 189 829 l 185 829 q 163 839 173 839 l 161 839 q 138 806 139 837 q 159 764 140 785 q 194 745 184 745 l 195 745 q 214 758 204 745 q 242 817 242 796 l 242 826 q 221 844 234 844 l 214 844 z "},"f":{"ha":1041,"x_min":34,"x_max":1007,"o":"m 572 1244 l 612 1244 q 944 1204 944 1244 q 1007 1086 1007 1161 l 1007 1054 q 857 920 1007 950 l 849 920 q 541 927 715 920 q 359 856 359 914 q 351 753 359 851 l 722 753 q 873 595 846 753 q 715 437 846 437 l 398 437 l 398 429 q 446 81 446 171 q 279 -85 404 -85 l 271 -85 q 121 33 172 -85 q 34 713 121 117 l 34 808 q 248 1189 34 1097 q 572 1244 382 1244 m 267 392 q 253 387 262 391 q 241 373 241 376 l 238 377 q 216 387 226 387 l 214 387 q 191 354 192 385 q 212 311 193 333 q 247 292 237 292 l 248 292 q 267 305 257 293 q 295 365 295 344 l 295 368 l 294 374 q 273 392 287 392 l 267 392 m 258 659 q 235 650 250 657 q 216 627 216 633 l 216 626 l 210 633 q 171 649 189 649 l 168 649 q 128 593 130 646 q 165 522 132 559 q 225 488 208 488 l 227 488 q 258 511 242 490 q 307 612 307 577 l 307 616 l 305 627 q 269 659 292 659 l 267 659 l 258 659 m 214 844 q 201 839 209 844 q 189 825 189 829 l 185 829 q 163 839 173 839 l 161 839 q 138 806 139 837 q 159 764 140 785 q 194 745 184 745 l 195 745 q 214 758 204 745 q 242 817 242 796 l 242 826 q 221 844 234 844 l 214 844 z "},"G":{"ha":1239,"x_min":34,"x_max":1205,"o":"m 651 1220 l 691 1220 q 976 959 976 1182 q 817 793 947 793 q 675 896 720 793 l 667 896 q 359 579 421 896 q 351 516 351 523 q 509 247 351 322 l 604 239 l 612 239 q 881 381 881 239 l 865 381 q 715 374 791 381 q 532 540 532 394 q 810 706 532 706 l 865 706 q 1198 492 1131 706 l 1205 413 q 857 -46 1205 60 q 596 -77 724 -77 q 81 271 216 -77 q 34 516 34 397 q 437 1173 34 971 q 651 1220 565 1220 m 245 382 q 234 374 240 380 q 227 358 227 362 l 227 357 l 222 359 q 205 363 212 363 q 196 361 200 363 q 181 338 181 355 q 183 324 181 332 q 216 290 191 304 q 250 281 239 281 q 256 281 254 281 q 271 300 264 285 q 281 352 281 332 q 279 367 281 361 l 277 373 q 256 385 267 385 q 250 384 253 385 l 245 382 m 241 634 q 217 627 232 634 q 195 606 195 612 l 190 613 q 151 633 170 633 q 106 582 113 633 q 136 506 106 546 q 195 468 176 468 q 229 488 210 468 q 285 588 285 552 l 285 599 q 249 634 274 634 l 241 634 m 275 823 q 265 824 271 824 l 260 824 q 244 816 245 819 l 243 821 q 225 840 235 836 q 216 842 220 842 q 190 821 201 842 q 186 801 186 812 q 191 773 186 789 q 216 741 205 744 q 221 739 218 739 q 239 745 229 739 q 290 789 283 768 l 292 795 l 292 797 q 279 821 292 816 l 275 823 z "},"g":{"ha":1239,"x_min":34,"x_max":1205,"o":"m 651 1220 l 691 1220 q 976 959 976 1182 q 817 793 947 793 q 675 896 720 793 l 667 896 q 359 579 421 896 q 351 516 351 523 q 509 247 351 322 l 604 239 l 612 239 q 881 381 881 239 l 865 381 q 715 374 791 381 q 532 540 532 394 q 810 706 532 706 l 865 706 q 1198 492 1131 706 l 1205 413 q 857 -46 1205 60 q 596 -77 724 -77 q 81 271 216 -77 q 34 516 34 397 q 437 1173 34 971 q 651 1220 565 1220 m 245 382 q 234 374 240 380 q 227 358 227 362 l 227 357 l 222 359 q 205 363 212 363 q 196 361 200 363 q 181 338 181 355 q 183 324 181 332 q 216 290 191 304 q 250 281 239 281 q 256 281 254 281 q 271 300 264 285 q 281 352 281 332 q 279 367 281 361 l 277 373 q 256 385 267 385 q 250 384 253 385 l 245 382 m 241 634 q 217 627 232 634 q 195 606 195 612 l 190 613 q 151 633 170 633 q 106 582 113 633 q 136 506 106 546 q 195 468 176 468 q 229 488 210 468 q 285 588 285 552 l 285 599 q 249 634 274 634 l 241 634 m 275 823 q 265 824 271 824 l 260 824 q 244 816 245 819 l 243 821 q 225 840 235 836 q 216 842 220 842 q 190 821 201 842 q 186 801 186 812 q 191 773 186 789 q 216 741 205 744 q 221 739 218 739 q 239 745 229 739 q 290 789 283 768 l 292 795 l 292 797 q 279 821 292 816 l 275 823 z "},"H":{"ha":1160,"x_min":34,"x_max":1126,"o":"m 200 1204 l 208 1204 q 374 920 374 1204 l 374 793 l 382 793 q 627 808 494 808 l 644 808 q 817 801 699 808 l 786 1030 l 786 1062 q 928 1204 809 1204 l 952 1204 q 1126 840 1126 1204 q 1055 33 1126 33 q 944 -14 1000 -14 l 928 -14 q 778 120 778 18 q 802 476 778 243 q 588 500 768 492 q 366 476 509 500 q 359 136 359 231 q 193 -46 338 -46 q 34 104 34 -16 q 58 848 58 683 q 42 1038 58 928 q 200 1204 71 1204 m 834 694 q 821 690 829 694 q 808 677 808 681 l 804 682 q 781 693 792 693 q 755 663 759 693 q 773 618 755 642 q 807 596 796 596 q 827 608 816 596 q 860 667 860 646 l 860 673 q 839 694 854 694 l 834 694 m 635 728 q 610 722 625 728 q 589 700 589 706 l 583 707 q 544 727 563 727 q 499 676 506 727 q 530 600 499 640 q 588 562 570 562 q 622 582 603 562 q 678 682 678 646 l 678 693 q 642 728 667 728 l 635 728 m 392 685 q 378 681 387 685 q 366 668 366 672 l 362 673 q 339 684 350 684 q 313 654 317 684 q 331 610 313 633 q 365 587 354 587 q 385 599 374 587 q 418 658 418 637 l 418 665 q 397 685 412 685 l 392 685 z "},"h":{"ha":1160,"x_min":34,"x_max":1126,"o":"m 200 1204 l 208 1204 q 374 920 374 1204 l 374 793 l 382 793 q 627 808 494 808 l 644 808 q 817 801 699 808 l 786 1030 l 786 1062 q 928 1204 809 1204 l 952 1204 q 1126 840 1126 1204 q 1055 33 1126 33 q 944 -14 1000 -14 l 928 -14 q 778 120 778 18 q 802 476 778 243 q 588 500 768 492 q 366 476 509 500 q 359 136 359 231 q 193 -46 338 -46 q 34 104 34 -16 q 58 848 58 683 q 42 1038 58 928 q 200 1204 71 1204 m 834 694 q 821 690 829 694 q 808 677 808 681 l 804 682 q 781 693 792 693 q 755 663 759 693 q 773 618 755 642 q 807 596 796 596 q 827 608 816 596 q 860 667 860 646 l 860 673 q 839 694 854 694 l 834 694 m 635 728 q 610 722 625 728 q 589 700 589 706 l 583 707 q 544 727 563 727 q 499 676 506 727 q 530 600 499 640 q 588 562 570 562 q 622 582 603 562 q 678 682 678 646 l 678 693 q 642 728 667 728 l 635 728 m 392 685 q 378 681 387 685 q 366 668 366 672 l 362 673 q 339 684 350 684 q 313 654 317 684 q 331 610 313 633 q 365 587 354 587 q 385 599 374 587 q 418 658 418 637 l 418 665 q 397 685 412 685 l 392 685 z "},"I":{"ha":432,"x_min":34,"x_max":398,"o":"m 193 1196 q 382 927 357 1196 q 398 690 398 783 q 335 25 398 104 q 216 -30 274 -30 l 200 -30 q 50 120 50 -3 q 81 706 81 587 q 34 1038 81 840 q 193 1196 68 1196 m 254 385 q 241 380 250 385 q 228 368 228 372 l 224 372 q 201 384 212 384 q 175 353 179 384 q 193 309 175 333 q 227 287 216 287 q 247 298 236 287 q 280 357 280 336 l 280 364 q 259 385 274 385 l 254 385 m 288 646 q 263 639 278 646 q 241 617 241 623 l 236 625 q 197 644 216 644 q 152 593 159 644 q 182 517 152 557 q 241 479 222 479 q 275 499 256 479 q 331 600 331 564 l 331 610 q 295 646 320 646 l 288 646 m 260 835 q 246 831 255 835 q 233 818 233 822 l 230 823 q 207 834 218 834 q 180 804 184 834 q 199 760 180 783 q 233 737 222 737 q 252 749 241 737 q 286 808 286 787 l 286 814 q 264 835 279 835 l 260 835 z "},"i":{"ha":432,"x_min":34,"x_max":398,"o":"m 193 1196 q 382 927 357 1196 q 398 690 398 783 q 335 25 398 104 q 216 -30 274 -30 l 200 -30 q 50 120 50 -3 q 81 706 81 587 q 34 1038 81 840 q 193 1196 68 1196 m 254 385 q 241 380 250 385 q 228 368 228 372 l 224 372 q 201 384 212 384 q 175 353 179 384 q 193 309 175 333 q 227 287 216 287 q 247 298 236 287 q 280 357 280 336 l 280 364 q 259 385 274 385 l 254 385 m 288 646 q 263 639 278 646 q 241 617 241 623 l 236 625 q 197 644 216 644 q 152 593 159 644 q 182 517 152 557 q 241 479 222 479 q 275 499 256 479 q 331 600 331 564 l 331 610 q 295 646 320 646 l 288 646 m 260 835 q 246 831 255 835 q 233 818 233 822 l 230 823 q 207 834 218 834 q 180 804 184 834 q 199 760 180 783 q 233 737 222 737 q 252 749 241 737 q 286 808 286 787 l 286 814 q 264 835 279 835 l 260 835 z "},"J":{"ha":970,"x_min":34,"x_max":936,"o":"m 730 1173 q 936 674 936 1173 q 699 -14 936 113 q 501 -62 608 -62 q 58 231 212 -62 q 34 374 34 338 q 200 618 34 618 l 216 618 q 366 452 345 618 l 359 357 q 493 262 401 262 l 525 262 q 620 666 620 312 q 564 1015 620 782 q 730 1173 564 1141 m 634 125 q 620 127 629 127 q 603 121 604 124 l 602 126 q 585 146 595 142 q 575 149 580 149 q 549 130 561 149 q 544 106 544 119 q 547 81 544 95 q 570 47 559 52 q 577 46 573 46 q 592 50 583 46 q 647 90 638 71 l 650 96 l 650 102 q 638 123 650 118 l 634 125 m 799 361 q 790 361 795 361 q 774 360 783 361 q 748 343 749 349 l 744 352 q 710 380 728 376 q 700 381 705 381 q 655 339 670 381 q 653 321 653 330 q 669 259 653 293 q 717 209 699 213 q 722 208 720 208 q 754 221 736 208 q 831 307 824 271 l 834 317 q 806 359 831 354 l 799 361 m 785 576 q 772 572 781 576 q 759 559 759 564 l 755 564 q 732 576 743 576 q 706 545 710 576 q 724 501 706 525 q 758 479 747 479 q 778 490 767 479 q 811 549 811 528 l 811 556 q 790 576 805 576 l 785 576 z "},"j":{"ha":970,"x_min":34,"x_max":936,"o":"m 730 1173 q 936 674 936 1173 q 699 -14 936 113 q 501 -62 608 -62 q 58 231 212 -62 q 34 374 34 338 q 200 618 34 618 l 216 618 q 366 452 345 618 l 359 357 q 493 262 401 262 l 525 262 q 620 666 620 312 q 564 1015 620 782 q 730 1173 564 1141 m 634 125 q 620 127 629 127 q 603 121 604 124 l 602 126 q 585 146 595 142 q 575 149 580 149 q 549 130 561 149 q 544 106 544 119 q 547 81 544 95 q 570 47 559 52 q 577 46 573 46 q 592 50 583 46 q 647 90 638 71 l 650 96 l 650 102 q 638 123 650 118 l 634 125 m 799 361 q 790 361 795 361 q 774 360 783 361 q 748 343 749 349 l 744 352 q 710 380 728 376 q 700 381 705 381 q 655 339 670 381 q 653 321 653 330 q 669 259 653 293 q 717 209 699 213 q 722 208 720 208 q 754 221 736 208 q 831 307 824 271 l 834 317 q 806 359 831 354 l 799 361 m 785 576 q 772 572 781 576 q 759 559 759 564 l 755 564 q 732 576 743 576 q 706 545 710 576 q 724 501 706 525 q 758 479 747 479 q 778 490 767 479 q 811 549 811 528 l 811 556 q 790 576 805 576 l 785 576 z "},"K":{"ha":1144,"x_min":34,"x_max":1110,"o":"m 256 1189 q 414 1054 372 1189 l 414 769 q 849 1118 575 839 q 928 1157 849 1137 l 983 1157 q 1110 1030 1110 1121 l 1110 975 q 596 508 1110 853 q 1055 199 745 379 q 1102 81 1102 123 q 952 -77 1075 -77 l 928 -77 q 382 262 845 -77 q 303 -38 361 -38 q 224 -77 303 -58 l 184 -77 q 34 81 61 -77 q 98 793 98 506 l 98 1006 q 240 1189 98 1162 l 256 1189 m 568 391 q 554 387 563 391 q 541 374 541 378 l 538 378 q 515 390 526 390 q 488 359 492 390 q 507 315 488 339 q 541 293 530 293 q 560 304 549 293 q 593 363 593 342 l 593 370 q 572 391 587 391 l 568 391 m 411 576 q 387 570 401 576 q 365 548 365 554 l 359 555 q 320 575 339 575 q 275 524 282 575 q 306 448 275 488 q 364 410 346 410 q 398 430 379 410 q 454 530 454 494 l 454 541 q 418 576 444 576 l 411 576 m 231 694 q 218 690 227 694 q 205 677 205 682 l 201 682 q 178 694 189 694 q 152 663 156 694 q 170 619 152 643 q 204 597 193 597 q 224 608 213 597 q 257 667 257 646 l 257 674 q 236 694 251 694 l 231 694 z "},"k":{"ha":1144,"x_min":34,"x_max":1110,"o":"m 256 1189 q 414 1054 372 1189 l 414 769 q 849 1118 575 839 q 928 1157 849 1137 l 983 1157 q 1110 1030 1110 1121 l 1110 975 q 596 508 1110 853 q 1055 199 745 379 q 1102 81 1102 123 q 952 -77 1075 -77 l 928 -77 q 382 262 845 -77 q 303 -38 361 -38 q 224 -77 303 -58 l 184 -77 q 34 81 61 -77 q 98 793 98 506 l 98 1006 q 240 1189 98 1162 l 256 1189 m 568 391 q 554 387 563 391 q 541 374 541 378 l 538 378 q 515 390 526 390 q 488 359 492 390 q 507 315 488 339 q 541 293 530 293 q 560 304 549 293 q 593 363 593 342 l 593 370 q 572 391 587 391 l 568 391 m 411 576 q 387 570 401 576 q 365 548 365 554 l 359 555 q 320 575 339 575 q 275 524 282 575 q 306 448 275 488 q 364 410 346 410 q 398 430 379 410 q 454 530 454 494 l 454 541 q 418 576 444 576 l 411 576 m 231 694 q 218 690 227 694 q 205 677 205 682 l 201 682 q 178 694 189 694 q 152 663 156 694 q 170 619 152 643 q 204 597 193 597 q 224 608 213 597 q 257 667 257 646 l 257 674 q 236 694 251 694 l 231 694 z "},"L":{"ha":867,"x_min":34,"x_max":833,"o":"m 248 1173 q 406 1006 380 1173 q 351 342 351 574 q 359 279 359 286 q 667 357 380 279 l 683 357 q 825 247 784 357 q 833 184 833 216 q 342 -46 833 20 l 327 -46 q 50 160 125 -46 q 34 302 34 239 l 34 310 q 113 1094 57 1094 q 248 1173 171 1173 m 220 364 q 206 360 215 364 q 193 347 193 351 l 190 352 q 167 363 178 363 q 140 333 144 363 q 159 289 140 313 q 193 267 182 267 q 212 278 201 267 q 245 337 245 316 l 245 344 q 224 364 239 364 l 220 364 m 253 625 q 229 618 243 625 q 207 597 207 603 l 201 604 q 162 624 181 624 q 117 573 124 624 q 148 497 117 537 q 206 459 188 459 q 240 479 221 459 q 296 579 296 543 l 296 590 q 260 625 286 625 l 253 625 m 251 820 q 237 816 246 820 q 224 803 224 807 l 221 808 q 198 819 209 819 q 172 789 176 819 q 190 745 172 768 q 224 722 213 722 q 243 734 233 722 q 277 793 277 772 l 277 800 q 256 820 271 820 l 251 820 z "},"l":{"ha":867,"x_min":34,"x_max":833,"o":"m 248 1173 q 406 1006 380 1173 q 351 342 351 574 q 359 279 359 286 q 667 357 380 279 l 683 357 q 825 247 784 357 q 833 184 833 216 q 342 -46 833 20 l 327 -46 q 50 160 125 -46 q 34 302 34 239 l 34 310 q 113 1094 57 1094 q 248 1173 171 1173 m 220 364 q 206 360 215 364 q 193 347 193 351 l 190 352 q 167 363 178 363 q 140 333 144 363 q 159 289 140 313 q 193 267 182 267 q 212 278 201 267 q 245 337 245 316 l 245 344 q 224 364 239 364 l 220 364 m 253 625 q 229 618 243 625 q 207 597 207 603 l 201 604 q 162 624 181 624 q 117 573 124 624 q 148 497 117 537 q 206 459 188 459 q 240 479 221 459 q 296 579 296 543 l 296 590 q 260 625 286 625 l 253 625 m 251 820 q 237 816 246 820 q 224 803 224 807 l 221 808 q 198 819 209 819 q 172 789 176 819 q 190 745 172 768 q 224 722 213 722 q 243 734 233 722 q 277 793 277 772 l 277 800 q 256 820 271 820 l 251 820 z "},"M":{"ha":1342,"x_min":34,"x_max":1308,"o":"m 1063 1213 q 1308 856 1267 1213 l 1308 777 q 1253 57 1308 136 q 1118 -14 1189 -14 q 960 136 960 20 q 991 737 991 653 l 991 745 l 983 745 q 786 413 886 518 q 644 366 722 366 q 359 650 498 366 l 351 650 l 351 405 q 366 65 351 225 q 224 -77 328 -77 l 200 -77 q 42 199 42 -77 q 34 627 34 473 q 74 1090 34 1015 q 240 1189 113 1165 l 271 1189 q 644 785 431 1189 l 651 785 q 1063 1213 834 1213 m 831 783 q 818 779 827 783 q 805 766 805 770 l 802 771 q 779 783 789 783 q 752 752 756 783 q 770 708 752 732 q 804 686 793 686 q 824 697 813 686 q 857 756 857 735 l 857 763 q 836 783 851 783 l 831 783 m 690 637 q 665 630 680 637 q 644 608 644 614 l 638 616 q 599 635 618 635 q 554 585 561 635 q 585 509 554 549 q 643 471 625 471 q 677 490 658 471 q 733 591 733 555 l 733 602 q 697 637 722 637 l 690 637 m 510 771 q 496 767 505 771 q 484 754 484 758 l 480 759 q 457 770 468 770 q 431 740 435 770 q 449 696 431 720 q 483 673 472 673 q 503 685 492 673 q 536 744 536 723 l 536 751 q 515 771 530 771 l 510 771 z "},"m":{"ha":1342,"x_min":34,"x_max":1308,"o":"m 1063 1213 q 1308 856 1267 1213 l 1308 777 q 1253 57 1308 136 q 1118 -14 1189 -14 q 960 136 960 20 q 991 737 991 653 l 991 745 l 983 745 q 786 413 886 518 q 644 366 722 366 q 359 650 498 366 l 351 650 l 351 405 q 366 65 351 225 q 224 -77 328 -77 l 200 -77 q 42 199 42 -77 q 34 627 34 473 q 74 1090 34 1015 q 240 1189 113 1165 l 271 1189 q 644 785 431 1189 l 651 785 q 1063 1213 834 1213 m 831 783 q 818 779 827 783 q 805 766 805 770 l 802 771 q 779 783 789 783 q 752 752 756 783 q 770 708 752 732 q 804 686 793 686 q 824 697 813 686 q 857 756 857 735 l 857 763 q 836 783 851 783 l 831 783 m 690 637 q 665 630 680 637 q 644 608 644 614 l 638 616 q 599 635 618 635 q 554 585 561 635 q 585 509 554 549 q 643 471 625 471 q 677 490 658 471 q 733 591 733 555 l 733 602 q 697 637 722 637 l 690 637 m 510 771 q 496 767 505 771 q 484 754 484 758 l 480 759 q 457 770 468 770 q 431 740 435 770 q 449 696 431 720 q 483 673 472 673 q 503 685 492 673 q 536 744 536 723 l 536 751 q 515 771 530 771 l 510 771 z "},"N":{"ha":1184,"x_min":34,"x_max":1150,"o":"m 1063 1156 q 1150 1015 1150 1128 l 1150 603 q 1055 41 1150 155 q 905 -38 974 -38 l 857 -38 q 556 294 701 -38 q 351 587 420 514 l 351 579 q 342 445 351 538 q 366 81 342 407 q 224 -54 366 -22 l 200 -54 q 42 247 42 -54 q 34 405 34 247 l 34 492 q 200 991 34 924 q 303 1023 245 1015 q 659 706 462 1023 q 825 445 769 555 l 833 445 q 841 603 833 531 q 825 1015 825 839 q 907 1145 838 1108 q 994 1167 947 1167 q 1063 1156 1027 1167 m 704 361 q 694 351 699 359 q 688 335 688 340 q 689 333 688 334 l 684 336 q 672 337 677 337 q 658 334 664 337 q 646 313 646 327 q 651 294 646 305 q 689 265 661 277 q 718 261 707 261 q 730 263 726 261 q 741 283 737 268 q 745 324 745 307 q 740 351 745 342 l 736 357 q 717 366 726 366 q 707 363 712 366 l 704 361 m 600 603 q 582 585 591 598 q 574 559 574 566 q 574 555 574 557 l 566 559 q 545 562 554 562 q 522 556 532 562 q 502 521 502 544 q 509 489 502 507 q 574 439 528 458 q 623 432 605 432 q 644 436 637 432 q 663 470 656 444 q 670 538 670 510 q 661 585 670 569 l 655 595 q 621 611 637 611 q 606 607 613 611 l 600 603 m 480 752 q 470 742 475 749 q 465 726 465 730 q 465 724 465 725 l 460 726 q 448 728 454 728 q 435 724 440 728 q 422 704 422 718 q 427 685 422 696 q 465 656 437 667 q 494 652 484 652 q 506 654 502 652 q 517 674 513 659 q 522 715 522 698 q 516 742 522 732 l 513 747 q 493 757 502 757 q 484 754 488 757 l 480 752 z "},"n":{"ha":1184,"x_min":34,"x_max":1150,"o":"m 1063 1156 q 1150 1015 1150 1128 l 1150 603 q 1055 41 1150 155 q 905 -38 974 -38 l 857 -38 q 556 294 701 -38 q 351 587 420 514 l 351 579 q 342 445 351 538 q 366 81 342 407 q 224 -54 366 -22 l 200 -54 q 42 247 42 -54 q 34 405 34 247 l 34 492 q 200 991 34 924 q 303 1023 245 1015 q 659 706 462 1023 q 825 445 769 555 l 833 445 q 841 603 833 531 q 825 1015 825 839 q 907 1145 838 1108 q 994 1167 947 1167 q 1063 1156 1027 1167 m 704 361 q 694 351 699 359 q 688 335 688 340 q 689 333 688 334 l 684 336 q 672 337 677 337 q 658 334 664 337 q 646 313 646 327 q 651 294 646 305 q 689 265 661 277 q 718 261 707 261 q 730 263 726 261 q 741 283 737 268 q 745 324 745 307 q 740 351 745 342 l 736 357 q 717 366 726 366 q 707 363 712 366 l 704 361 m 600 603 q 582 585 591 598 q 574 559 574 566 q 574 555 574 557 l 566 559 q 545 562 554 562 q 522 556 532 562 q 502 521 502 544 q 509 489 502 507 q 574 439 528 458 q 623 432 605 432 q 644 436 637 432 q 663 470 656 444 q 670 538 670 510 q 661 585 670 569 l 655 595 q 621 611 637 611 q 606 607 613 611 l 600 603 m 480 752 q 470 742 475 749 q 465 726 465 730 q 465 724 465 725 l 460 726 q 448 728 454 728 q 435 724 440 728 q 422 704 422 718 q 427 685 422 696 q 465 656 437 667 q 494 652 484 652 q 506 654 502 652 q 517 674 513 659 q 522 715 522 698 q 516 742 522 732 l 513 747 q 493 757 502 757 q 484 754 488 757 l 480 752 z "},"O":{"ha":1279,"x_min":34,"x_max":1245,"o":"m 737 1165 q 1205 793 1010 1165 q 1245 579 1245 684 l 1245 547 q 983 89 1245 279 q 635 -14 821 -14 l 580 -14 q 74 286 227 -14 q 34 476 42 372 q 249 982 34 800 q 737 1165 463 1165 m 772 820 q 673 838 722 838 q 488 764 574 838 q 359 484 359 656 l 359 460 q 572 302 359 329 l 644 302 q 928 571 928 339 q 772 820 928 767 m 892 261 q 878 257 887 261 q 865 244 865 248 l 862 249 q 839 260 850 260 q 812 230 817 260 q 831 186 812 210 q 865 163 854 163 q 884 175 873 163 q 918 234 918 213 l 918 241 q 897 261 911 261 l 892 261 m 678 232 q 654 225 669 232 q 632 203 632 210 l 627 211 q 587 231 606 231 q 543 180 549 231 q 573 104 543 144 q 631 66 613 66 q 665 85 646 66 q 722 186 722 150 l 722 197 q 686 232 711 232 l 678 232 m 409 258 q 395 254 404 258 q 382 241 382 245 l 379 245 q 356 257 367 257 q 330 227 334 257 q 348 182 330 206 q 382 160 371 160 q 401 172 391 160 q 435 231 435 210 l 435 237 q 414 258 429 258 l 409 258 z "},"o":{"ha":1279,"x_min":34,"x_max":1245,"o":"m 737 1165 q 1205 793 1010 1165 q 1245 579 1245 684 l 1245 547 q 983 89 1245 279 q 635 -14 821 -14 l 580 -14 q 74 286 227 -14 q 34 476 42 372 q 249 982 34 800 q 737 1165 463 1165 m 772 820 q 673 838 722 838 q 488 764 574 838 q 359 484 359 656 l 359 460 q 572 302 359 329 l 644 302 q 928 571 928 339 q 772 820 928 767 m 892 261 q 878 257 887 261 q 865 244 865 248 l 862 249 q 839 260 850 260 q 812 230 817 260 q 831 186 812 210 q 865 163 854 163 q 884 175 873 163 q 918 234 918 213 l 918 241 q 897 261 911 261 l 892 261 m 678 232 q 654 225 669 232 q 632 203 632 210 l 627 211 q 587 231 606 231 q 543 180 549 231 q 573 104 543 144 q 631 66 613 66 q 665 85 646 66 q 722 186 722 150 l 722 197 q 686 232 711 232 l 678 232 m 409 258 q 395 254 404 258 q 382 241 382 245 l 379 245 q 356 257 367 257 q 330 227 334 257 q 348 182 330 206 q 382 160 371 160 q 401 172 391 160 q 435 231 435 210 l 435 237 q 414 258 429 258 l 409 258 z "},"P":{"ha":1057,"x_min":34,"x_max":1023,"o":"m 509 1236 q 1007 888 866 1236 q 1023 777 1023 828 q 635 334 1023 462 q 493 318 557 318 l 390 318 q 398 136 398 172 q 319 -30 398 51 q 224 -62 260 -62 q 66 96 90 -62 q 74 176 66 134 q 34 753 50 422 q 248 1189 34 1112 q 509 1236 390 1236 m 359 659 q 485 635 359 635 q 699 745 628 635 l 699 785 q 541 911 699 880 l 461 911 q 359 840 363 911 l 359 659 m 791 565 q 777 568 786 568 q 759 562 761 566 l 758 568 q 743 589 753 584 q 732 591 737 591 q 706 574 718 591 q 700 545 700 562 q 701 526 700 536 q 722 490 712 495 q 730 488 725 488 q 745 492 736 488 q 801 529 791 511 l 804 535 q 805 543 805 539 q 795 563 805 557 l 791 565 m 907 829 q 883 823 898 829 q 861 801 861 807 l 856 808 q 817 828 836 828 q 772 777 779 828 q 802 701 772 741 q 861 663 842 663 q 895 683 876 663 q 951 783 951 747 l 951 794 q 915 829 940 829 l 907 829 m 785 1028 q 776 1017 781 1025 q 772 1001 772 1006 q 773 998 772 999 l 768 1000 q 761 1001 764 1001 q 743 996 749 1001 q 733 977 733 988 q 740 956 733 968 q 781 930 752 939 q 801 929 793 929 q 821 933 816 929 q 830 954 828 938 q 831 977 831 967 q 822 1021 831 1008 l 818 1027 q 800 1034 808 1034 q 789 1030 793 1034 l 785 1028 z "},"p":{"ha":1057,"x_min":34,"x_max":1023,"o":"m 509 1236 q 1007 888 866 1236 q 1023 777 1023 828 q 635 334 1023 462 q 493 318 557 318 l 390 318 q 398 136 398 172 q 319 -30 398 51 q 224 -62 260 -62 q 66 96 90 -62 q 74 176 66 134 q 34 753 50 422 q 248 1189 34 1112 q 509 1236 390 1236 m 359 659 q 485 635 359 635 q 699 745 628 635 l 699 785 q 541 911 699 880 l 461 911 q 359 840 363 911 l 359 659 m 791 565 q 777 568 786 568 q 759 562 761 566 l 758 568 q 743 589 753 584 q 732 591 737 591 q 706 574 718 591 q 700 545 700 562 q 701 526 700 536 q 722 490 712 495 q 730 488 725 488 q 745 492 736 488 q 801 529 791 511 l 804 535 q 805 543 805 539 q 795 563 805 557 l 791 565 m 907 829 q 883 823 898 829 q 861 801 861 807 l 856 808 q 817 828 836 828 q 772 777 779 828 q 802 701 772 741 q 861 663 842 663 q 895 683 876 663 q 951 783 951 747 l 951 794 q 915 829 940 829 l 907 829 m 785 1028 q 776 1017 781 1025 q 772 1001 772 1006 q 773 998 772 999 l 768 1000 q 761 1001 764 1001 q 743 996 749 1001 q 733 977 733 988 q 740 956 733 968 q 781 930 752 939 q 801 929 793 929 q 821 933 816 929 q 830 954 828 938 q 831 977 831 967 q 822 1021 831 1008 l 818 1027 q 800 1034 808 1034 q 789 1030 793 1034 l 785 1028 z "},"Q":{"ha":1295,"x_min":34,"x_max":1261,"o":"m 737 1157 q 1205 785 1010 1157 q 1245 571 1245 675 l 1245 540 q 1134 223 1245 385 q 1261 57 1261 158 l 1261 49 q 1110 -101 1234 -101 l 1102 -101 q 865 18 989 -101 q 635 -22 734 -22 l 580 -22 q 74 279 227 -22 q 34 469 42 364 q 249 975 34 792 q 737 1157 463 1157 m 791 806 q 703 821 747 821 q 506 751 606 821 q 359 476 359 648 l 359 452 q 572 294 359 321 l 644 294 q 928 564 928 331 q 791 806 928 759 m 892 261 q 878 257 887 261 q 865 244 865 248 l 862 249 q 839 260 850 260 q 812 230 817 260 q 831 186 812 210 q 865 163 854 163 q 884 175 873 163 q 918 234 918 213 l 918 241 q 897 261 911 261 l 892 261 m 678 232 q 654 225 669 232 q 632 203 632 210 l 627 211 q 587 231 606 231 q 543 180 549 231 q 573 104 543 144 q 631 66 613 66 q 665 85 646 66 q 722 186 722 150 l 722 197 q 686 232 711 232 l 678 232 m 409 258 q 395 254 404 258 q 382 241 382 245 l 379 245 q 356 257 367 257 q 330 227 334 257 q 348 182 330 206 q 382 160 371 160 q 401 172 391 160 q 435 231 435 210 l 435 237 q 414 258 429 258 l 409 258 z "},"q":{"ha":1295,"x_min":34,"x_max":1261,"o":"m 737 1157 q 1205 785 1010 1157 q 1245 571 1245 675 l 1245 540 q 1134 223 1245 385 q 1261 57 1261 158 l 1261 49 q 1110 -101 1234 -101 l 1102 -101 q 865 18 989 -101 q 635 -22 734 -22 l 580 -22 q 74 279 227 -22 q 34 469 42 364 q 249 975 34 792 q 737 1157 463 1157 m 791 806 q 703 821 747 821 q 506 751 606 821 q 359 476 359 648 l 359 452 q 572 294 359 321 l 644 294 q 928 564 928 331 q 791 806 928 759 m 892 261 q 878 257 887 261 q 865 244 865 248 l 862 249 q 839 260 850 260 q 812 230 817 260 q 831 186 812 210 q 865 163 854 163 q 884 175 873 163 q 918 234 918 213 l 918 241 q 897 261 911 261 l 892 261 m 678 232 q 654 225 669 232 q 632 203 632 210 l 627 211 q 587 231 606 231 q 543 180 549 231 q 573 104 543 144 q 631 66 613 66 q 665 85 646 66 q 722 186 722 150 l 722 197 q 686 232 711 232 l 678 232 m 409 258 q 395 254 404 258 q 382 241 382 245 l 379 245 q 356 257 367 257 q 330 227 334 257 q 348 182 330 206 q 382 160 371 160 q 401 172 391 160 q 435 231 435 210 l 435 237 q 414 258 429 258 l 409 258 z "},"R":{"ha":1057,"x_min":34,"x_max":1023,"o":"m 509 1228 q 1007 880 866 1228 q 1023 769 1023 821 q 762 366 1023 529 q 968 215 948 262 q 983 144 983 156 q 825 -6 983 20 q 406 262 690 -6 l 390 271 q 398 152 398 192 q 224 -70 398 -44 q 66 89 90 -70 q 74 168 66 126 q 34 745 50 415 q 248 1181 34 1104 q 509 1228 390 1228 m 359 650 q 485 627 359 627 q 699 737 628 627 l 699 777 q 541 903 699 872 l 461 903 q 359 832 363 903 l 359 650 m 791 565 q 777 568 786 568 q 759 562 761 566 l 758 568 q 743 589 753 584 q 732 591 737 591 q 706 574 718 591 q 700 545 700 562 q 701 526 700 536 q 722 490 712 495 q 730 488 725 488 q 745 492 736 488 q 801 529 791 511 l 804 535 q 805 543 805 539 q 795 563 805 557 l 791 565 m 907 829 q 883 823 898 829 q 861 801 861 807 l 856 808 q 817 828 836 828 q 772 777 779 828 q 802 701 772 741 q 861 663 842 663 q 895 683 876 663 q 951 783 951 747 l 951 794 q 915 829 940 829 l 907 829 m 785 1028 q 776 1017 781 1025 q 772 1001 772 1006 q 773 998 772 999 l 768 1000 q 761 1001 764 1001 q 743 996 749 1001 q 733 977 733 988 q 740 956 733 968 q 781 930 752 939 q 801 929 793 929 q 821 933 816 929 q 830 954 828 938 q 831 977 831 967 q 822 1021 831 1008 l 818 1027 q 800 1034 808 1034 q 789 1030 793 1034 l 785 1028 z "},"r":{"ha":1057,"x_min":34,"x_max":1023,"o":"m 509 1228 q 1007 880 866 1228 q 1023 769 1023 821 q 762 366 1023 529 q 968 215 948 262 q 983 144 983 156 q 825 -6 983 20 q 406 262 690 -6 l 390 271 q 398 152 398 192 q 224 -70 398 -44 q 66 89 90 -70 q 74 168 66 126 q 34 745 50 415 q 248 1181 34 1104 q 509 1228 390 1228 m 359 650 q 485 627 359 627 q 699 737 628 627 l 699 777 q 541 903 699 872 l 461 903 q 359 832 363 903 l 359 650 m 791 565 q 777 568 786 568 q 759 562 761 566 l 758 568 q 743 589 753 584 q 732 591 737 591 q 706 574 718 591 q 700 545 700 562 q 701 526 700 536 q 722 490 712 495 q 730 488 725 488 q 745 492 736 488 q 801 529 791 511 l 804 535 q 805 543 805 539 q 795 563 805 557 l 791 565 m 907 829 q 883 823 898 829 q 861 801 861 807 l 856 808 q 817 828 836 828 q 772 777 779 828 q 802 701 772 741 q 861 663 842 663 q 895 683 876 663 q 951 783 951 747 l 951 794 q 915 829 940 829 l 907 829 m 785 1028 q 776 1017 781 1025 q 772 1001 772 1006 q 773 998 772 999 l 768 1000 q 761 1001 764 1001 q 743 996 749 1001 q 733 977 733 988 q 740 956 733 968 q 781 930 752 939 q 801 929 793 929 q 821 933 816 929 q 830 954 828 938 q 831 977 831 967 q 822 1021 831 1008 l 818 1027 q 800 1034 808 1034 q 789 1030 793 1034 l 785 1028 z "},"S":{"ha":1144,"x_min":34,"x_max":1110,"o":"m 659 1196 q 991 1015 909 1196 q 1007 920 1007 960 q 825 737 979 737 q 683 872 683 778 l 644 872 q 359 706 437 872 q 991 524 895 640 q 1110 334 1110 438 l 1110 286 q 612 -94 1110 7 q 342 -109 496 -109 l 335 -109 q 145 57 145 -88 q 295 215 172 215 l 469 215 q 762 286 636 215 q 279 389 762 334 q 34 674 34 471 l 34 698 q 303 1101 34 914 q 659 1196 472 1196 m 849 495 q 841 496 846 496 q 834 496 838 496 q 818 487 819 491 l 817 492 q 798 510 808 507 q 789 511 793 511 q 764 489 774 511 q 762 473 762 481 q 768 441 762 459 q 794 410 784 413 q 799 410 796 410 q 817 415 806 410 q 865 462 859 442 l 867 468 q 853 494 867 490 l 849 495 m 644 565 q 631 566 639 566 q 618 566 625 566 q 591 551 593 557 l 588 559 q 556 590 574 585 q 543 592 549 592 q 498 554 516 592 q 495 528 495 542 q 506 473 495 503 q 550 420 532 425 q 558 418 553 418 q 588 429 570 418 q 672 508 661 473 l 675 518 q 651 562 674 555 l 644 565 m 382 585 q 376 586 380 586 q 368 585 372 586 q 351 577 353 581 l 349 582 q 331 600 341 597 q 323 602 327 602 q 297 578 307 602 q 295 563 295 571 q 301 531 295 549 q 327 500 317 503 q 332 499 329 499 q 349 505 339 499 q 399 551 393 532 l 401 558 q 387 584 400 579 l 382 585 z "},"s":{"ha":1144,"x_min":34,"x_max":1110,"o":"m 659 1196 q 991 1015 909 1196 q 1007 920 1007 960 q 825 737 979 737 q 683 872 683 778 l 644 872 q 359 706 437 872 q 991 524 895 640 q 1110 334 1110 438 l 1110 286 q 612 -94 1110 7 q 342 -109 496 -109 l 335 -109 q 145 57 145 -88 q 295 215 172 215 l 469 215 q 762 286 636 215 q 279 389 762 334 q 34 674 34 471 l 34 698 q 303 1101 34 914 q 659 1196 472 1196 m 849 495 q 841 496 846 496 q 834 496 838 496 q 818 487 819 491 l 817 492 q 798 510 808 507 q 789 511 793 511 q 764 489 774 511 q 762 473 762 481 q 768 441 762 459 q 794 410 784 413 q 799 410 796 410 q 817 415 806 410 q 865 462 859 442 l 867 468 q 853 494 867 490 l 849 495 m 644 565 q 631 566 639 566 q 618 566 625 566 q 591 551 593 557 l 588 559 q 556 590 574 585 q 543 592 549 592 q 498 554 516 592 q 495 528 495 542 q 506 473 495 503 q 550 420 532 425 q 558 418 553 418 q 588 429 570 418 q 672 508 661 473 l 675 518 q 651 562 674 555 l 644 565 m 382 585 q 376 586 380 586 q 368 585 372 586 q 351 577 353 581 l 349 582 q 331 600 341 597 q 323 602 327 602 q 297 578 307 602 q 295 563 295 571 q 301 531 295 549 q 327 500 317 503 q 332 499 329 499 q 349 505 339 499 q 399 551 393 532 l 401 558 q 387 584 400 579 l 382 585 z "},"T":{"ha":1112,"x_min":34,"x_max":1078,"o":"m 786 1189 q 1078 1006 1078 1189 q 920 840 1050 840 q 770 864 795 864 l 739 864 q 778 113 778 460 q 635 -38 778 14 l 612 -38 q 446 136 469 -38 q 454 255 446 220 q 414 848 437 758 q 193 808 225 808 q 34 975 53 808 q 335 1157 34 1133 q 786 1189 547 1189 m 821 1084 q 807 1080 816 1084 q 794 1067 794 1071 l 791 1072 q 768 1083 779 1083 q 741 1053 745 1083 q 760 1008 741 1032 q 793 986 783 986 q 813 998 802 986 q 846 1057 846 1036 l 846 1063 q 825 1084 840 1084 l 821 1084 m 604 1090 q 580 1083 595 1090 q 558 1061 558 1067 l 553 1069 q 513 1088 532 1088 q 469 1038 475 1088 q 499 962 469 1002 q 557 924 539 924 q 591 943 572 924 q 648 1044 648 1008 l 648 1055 q 612 1090 637 1090 l 604 1090 m 348 1033 q 334 1029 343 1033 q 321 1016 321 1020 l 318 1021 q 295 1032 306 1032 q 269 1002 273 1032 q 287 958 269 981 q 321 935 310 935 q 340 947 330 935 q 374 1006 374 985 l 374 1013 q 353 1033 368 1033 l 348 1033 z "},"t":{"ha":1112,"x_min":34,"x_max":1078,"o":"m 786 1189 q 1078 1006 1078 1189 q 920 840 1050 840 q 770 864 795 864 l 739 864 q 778 113 778 460 q 635 -38 778 14 l 612 -38 q 446 136 469 -38 q 454 255 446 220 q 414 848 437 758 q 193 808 225 808 q 34 975 53 808 q 335 1157 34 1133 q 786 1189 547 1189 m 821 1084 q 807 1080 816 1084 q 794 1067 794 1071 l 791 1072 q 768 1083 779 1083 q 741 1053 745 1083 q 760 1008 741 1032 q 793 986 783 986 q 813 998 802 986 q 846 1057 846 1036 l 846 1063 q 825 1084 840 1084 l 821 1084 m 604 1090 q 580 1083 595 1090 q 558 1061 558 1067 l 553 1069 q 513 1088 532 1088 q 469 1038 475 1088 q 499 962 469 1002 q 557 924 539 924 q 591 943 572 924 q 648 1044 648 1008 l 648 1055 q 612 1090 637 1090 l 604 1090 m 348 1033 q 334 1029 343 1033 q 321 1016 321 1020 l 318 1021 q 295 1032 306 1032 q 269 1002 273 1032 q 287 958 269 981 q 321 935 310 935 q 340 947 330 935 q 374 1006 374 985 l 374 1013 q 353 1033 368 1033 l 348 1033 z "},"U":{"ha":1081,"x_min":34,"x_max":1047,"o":"m 881 1204 q 1047 1038 1047 1178 q 1000 516 1007 679 q 1031 152 1007 293 l 1031 128 q 881 -22 1000 -22 q 715 89 783 -22 q 430 -6 562 -6 l 366 -6 q 90 199 205 -6 q 34 492 34 341 l 34 540 q 137 1157 34 1069 l 232 1189 q 398 1015 372 1189 q 351 564 351 779 l 351 484 q 398 318 365 318 l 430 318 q 683 635 614 318 q 722 1094 699 694 q 881 1204 782 1204 m 652 314 q 638 310 647 314 q 625 297 625 301 l 622 302 q 599 313 610 313 q 572 283 576 313 q 591 239 572 262 q 625 216 614 216 q 644 228 633 216 q 677 287 677 266 l 677 294 q 656 314 671 314 l 652 314 m 446 237 q 422 231 437 237 q 400 209 400 215 l 395 216 q 355 236 374 236 q 311 185 317 236 q 341 109 311 149 q 399 71 381 71 q 433 91 414 71 q 490 191 490 155 l 490 202 q 454 237 479 237 l 446 237 m 237 355 q 223 351 232 355 q 210 338 210 342 l 207 343 q 184 355 195 355 q 157 324 161 355 q 176 280 157 304 q 210 258 199 258 q 229 269 218 258 q 262 328 262 307 l 262 335 q 241 355 256 355 l 237 355 z "},"u":{"ha":1081,"x_min":34,"x_max":1047,"o":"m 881 1204 q 1047 1038 1047 1178 q 1000 516 1007 679 q 1031 152 1007 293 l 1031 128 q 881 -22 1000 -22 q 715 89 783 -22 q 430 -6 562 -6 l 366 -6 q 90 199 205 -6 q 34 492 34 341 l 34 540 q 137 1157 34 1069 l 232 1189 q 398 1015 372 1189 q 351 564 351 779 l 351 484 q 398 318 365 318 l 430 318 q 683 635 614 318 q 722 1094 699 694 q 881 1204 782 1204 m 652 314 q 638 310 647 314 q 625 297 625 301 l 622 302 q 599 313 610 313 q 572 283 576 313 q 591 239 572 262 q 625 216 614 216 q 644 228 633 216 q 677 287 677 266 l 677 294 q 656 314 671 314 l 652 314 m 446 237 q 422 231 437 237 q 400 209 400 215 l 395 216 q 355 236 374 236 q 311 185 317 236 q 341 109 311 149 q 399 71 381 71 q 433 91 414 71 q 490 191 490 155 l 490 202 q 454 237 479 237 l 446 237 m 237 355 q 223 351 232 355 q 210 338 210 342 l 207 343 q 184 355 195 355 q 157 324 161 355 q 176 280 157 304 q 210 258 199 258 q 229 269 218 258 q 262 328 262 307 l 262 335 q 241 355 256 355 l 237 355 z "},"V":{"ha":1192,"x_min":34,"x_max":1158,"o":"m 976 1189 l 1007 1189 q 1158 1030 1158 1156 q 1039 785 1158 977 l 730 41 q 604 -22 666 -22 l 556 -22 q 303 389 404 -22 q 42 967 170 755 q 34 1015 42 973 q 184 1173 64 1173 l 208 1173 q 446 864 338 1173 q 588 524 493 777 l 596 524 q 905 1173 827 1127 q 976 1189 956 1189 m 771 452 q 763 452 768 452 l 757 452 q 741 444 742 448 l 739 450 q 721 468 731 465 q 713 469 717 469 q 686 448 696 469 q 684 430 684 439 q 689 399 684 416 q 714 368 704 371 q 719 367 716 367 q 736 372 726 367 q 787 418 781 397 l 789 424 q 776 450 789 446 l 771 452 m 627 273 q 602 266 617 273 q 581 244 581 250 l 575 252 q 536 271 555 271 q 491 220 498 271 q 522 144 491 184 q 580 106 562 106 q 614 126 595 106 q 670 227 670 191 l 670 237 q 634 273 659 273 l 627 273 m 454 466 q 443 456 450 464 q 436 441 436 446 l 436 440 l 431 443 q 416 446 422 446 q 406 444 410 446 q 391 421 391 438 q 393 406 391 414 q 427 372 401 387 q 460 363 450 363 q 467 365 465 363 q 481 383 475 368 q 492 435 492 415 q 489 451 492 444 l 486 457 q 466 469 476 469 q 458 467 462 469 l 454 466 z "},"v":{"ha":1192,"x_min":34,"x_max":1158,"o":"m 976 1189 l 1007 1189 q 1158 1030 1158 1156 q 1039 785 1158 977 l 730 41 q 604 -22 666 -22 l 556 -22 q 303 389 404 -22 q 42 967 170 755 q 34 1015 42 973 q 184 1173 64 1173 l 208 1173 q 446 864 338 1173 q 588 524 493 777 l 596 524 q 905 1173 827 1127 q 976 1189 956 1189 m 771 452 q 763 452 768 452 l 757 452 q 741 444 742 448 l 739 450 q 721 468 731 465 q 713 469 717 469 q 686 448 696 469 q 684 430 684 439 q 689 399 684 416 q 714 368 704 371 q 719 367 716 367 q 736 372 726 367 q 787 418 781 397 l 789 424 q 776 450 789 446 l 771 452 m 627 273 q 602 266 617 273 q 581 244 581 250 l 575 252 q 536 271 555 271 q 491 220 498 271 q 522 144 491 184 q 580 106 562 106 q 614 126 595 106 q 670 227 670 191 l 670 237 q 634 273 659 273 l 627 273 m 454 466 q 443 456 450 464 q 436 441 436 446 l 436 440 l 431 443 q 416 446 422 446 q 406 444 410 446 q 391 421 391 438 q 393 406 391 414 q 427 372 401 387 q 460 363 450 363 q 467 365 465 363 q 481 383 475 368 q 492 435 492 415 q 489 451 492 444 l 486 457 q 466 469 476 469 q 458 467 462 469 l 454 466 z "},"W":{"ha":1342,"x_min":34,"x_max":1308,"o":"m 176 1181 l 208 1181 q 406 825 357 1181 q 461 540 446 696 q 612 753 587 729 q 722 793 669 787 q 928 571 861 793 q 960 532 951 532 q 968 927 968 806 l 968 967 q 1118 1165 968 1137 l 1142 1165 q 1308 999 1308 1136 q 1261 286 1287 891 q 1055 9 1221 9 l 1007 9 q 707 310 852 9 l 699 310 q 390 -6 527 -6 l 382 -6 q 200 120 247 -6 l 121 690 q 34 1030 34 980 q 176 1181 60 1181 m 901 455 q 888 451 897 455 q 875 438 875 442 l 871 443 q 848 454 859 454 q 822 424 826 454 q 840 380 822 404 q 874 357 863 357 q 894 369 883 357 q 927 428 927 407 l 927 435 q 906 455 921 455 l 901 455 m 762 662 q 738 655 753 662 q 716 633 716 640 l 711 641 q 671 661 690 661 q 627 610 633 661 q 657 534 627 574 q 715 496 697 496 q 749 515 730 496 q 806 616 806 580 l 806 627 q 770 662 795 662 l 762 662 m 584 462 q 570 458 579 462 q 557 445 557 449 l 554 450 q 531 461 542 461 q 505 431 509 461 q 523 387 505 410 q 557 364 546 364 q 576 376 566 364 q 610 435 610 414 l 610 441 q 589 462 604 462 l 584 462 z "},"w":{"ha":1342,"x_min":34,"x_max":1308,"o":"m 176 1181 l 208 1181 q 406 825 357 1181 q 461 540 446 696 q 612 753 587 729 q 722 793 669 787 q 928 571 861 793 q 960 532 951 532 q 968 927 968 806 l 968 967 q 1118 1165 968 1137 l 1142 1165 q 1308 999 1308 1136 q 1261 286 1287 891 q 1055 9 1221 9 l 1007 9 q 707 310 852 9 l 699 310 q 390 -6 527 -6 l 382 -6 q 200 120 247 -6 l 121 690 q 34 1030 34 980 q 176 1181 60 1181 m 901 455 q 888 451 897 455 q 875 438 875 442 l 871 443 q 848 454 859 454 q 822 424 826 454 q 840 380 822 404 q 874 357 863 357 q 894 369 883 357 q 927 428 927 407 l 927 435 q 906 455 921 455 l 901 455 m 762 662 q 738 655 753 662 q 716 633 716 640 l 711 641 q 671 661 690 661 q 627 610 633 661 q 657 534 627 574 q 715 496 697 496 q 749 515 730 496 q 806 616 806 580 l 806 627 q 770 662 795 662 l 762 662 m 584 462 q 570 458 579 462 q 557 445 557 449 l 554 450 q 531 461 542 461 q 505 431 509 461 q 523 387 505 410 q 557 364 546 364 q 576 376 566 364 q 610 435 610 414 l 610 441 q 589 462 604 462 l 584 462 z "},"X":{"ha":1247,"x_min":34,"x_max":1213,"o":"m 176 1101 l 208 1101 q 509 848 303 1101 l 612 753 q 1007 1094 935 1094 l 1055 1094 q 1213 951 1162 1094 l 1213 927 q 1063 753 1213 812 l 817 516 q 1110 160 1110 197 q 1118 113 1118 118 q 936 -46 1084 -46 q 699 176 833 -46 l 596 286 q 335 -14 380 8 l 279 -22 l 271 -22 q 121 120 121 4 l 121 152 q 390 524 121 235 q 58 856 385 537 q 34 927 34 886 l 34 959 q 176 1101 64 1101 m 753 742 q 745 730 749 739 q 743 716 743 721 q 744 711 743 713 l 739 713 l 736 713 q 713 706 721 713 q 705 689 705 699 q 714 666 705 679 q 758 645 728 650 l 763 645 q 798 651 790 645 q 805 673 804 657 q 790 739 804 724 l 786 744 q 768 750 776 750 q 756 745 761 750 l 753 742 m 587 602 q 574 581 581 595 q 570 558 570 566 q 572 550 570 552 l 564 552 l 561 552 q 521 541 534 552 q 507 511 507 528 q 522 472 507 494 q 595 437 545 446 l 610 437 q 664 447 652 437 q 675 484 675 457 q 651 597 675 570 l 644 605 q 614 614 627 614 q 593 607 602 614 l 587 602 m 435 389 q 427 376 431 385 q 425 363 425 368 q 427 358 425 359 l 421 359 q 396 353 404 359 q 388 336 388 345 q 397 312 388 325 q 439 292 410 297 l 450 292 q 480 297 473 292 q 487 319 486 303 q 473 386 486 370 l 468 391 q 451 396 458 396 q 439 391 444 396 l 435 389 z "},"x":{"ha":1247,"x_min":34,"x_max":1213,"o":"m 176 1101 l 208 1101 q 509 848 303 1101 l 612 753 q 1007 1094 935 1094 l 1055 1094 q 1213 951 1162 1094 l 1213 927 q 1063 753 1213 812 l 817 516 q 1110 160 1110 197 q 1118 113 1118 118 q 936 -46 1084 -46 q 699 176 833 -46 l 596 286 q 335 -14 380 8 l 279 -22 l 271 -22 q 121 120 121 4 l 121 152 q 390 524 121 235 q 58 856 385 537 q 34 927 34 886 l 34 959 q 176 1101 64 1101 m 753 742 q 745 730 749 739 q 743 716 743 721 q 744 711 743 713 l 739 713 l 736 713 q 713 706 721 713 q 705 689 705 699 q 714 666 705 679 q 758 645 728 650 l 763 645 q 798 651 790 645 q 805 673 804 657 q 790 739 804 724 l 786 744 q 768 750 776 750 q 756 745 761 750 l 753 742 m 587 602 q 574 581 581 595 q 570 558 570 566 q 572 550 570 552 l 564 552 l 561 552 q 521 541 534 552 q 507 511 507 528 q 522 472 507 494 q 595 437 545 446 l 610 437 q 664 447 652 437 q 675 484 675 457 q 651 597 675 570 l 644 605 q 614 614 627 614 q 593 607 602 614 l 587 602 m 435 389 q 427 376 431 385 q 425 363 425 368 q 427 358 425 359 l 421 359 q 396 353 404 359 q 388 336 388 345 q 397 312 388 325 q 439 292 410 297 l 450 292 q 480 297 473 292 q 487 319 486 303 q 473 386 486 370 l 468 391 q 451 396 458 396 q 439 391 444 396 l 435 389 z "},"Y":{"ha":1184,"x_min":34,"x_max":1150,"o":"m 991 1173 q 1150 1015 1150 1154 q 968 793 1150 910 q 722 547 966 781 q 667 9 722 9 q 541 -46 608 -42 q 374 120 374 -14 q 390 437 390 265 l 390 547 l 74 888 q 34 991 34 945 q 184 1149 61 1149 l 208 1149 q 549 840 319 1149 l 564 832 q 991 1173 871 1173 m 770 844 q 757 840 766 844 q 744 827 744 831 l 741 832 q 718 844 728 844 q 691 813 695 844 q 709 769 691 793 q 743 747 732 747 q 763 758 752 747 q 796 817 796 796 l 796 824 q 775 844 790 844 l 770 844 m 600 741 q 575 734 590 741 q 553 712 553 718 l 548 720 q 509 739 528 739 q 464 688 471 739 q 494 612 464 652 q 553 574 534 574 q 587 594 568 574 q 643 694 643 659 l 643 705 q 607 741 632 741 l 600 741 m 393 852 q 379 848 388 852 q 366 836 366 840 l 363 840 q 340 852 351 852 q 313 821 317 852 q 332 777 313 801 q 366 755 355 755 q 385 766 374 755 q 418 825 418 804 l 418 832 q 397 852 412 852 l 393 852 z "},"y":{"ha":1184,"x_min":34,"x_max":1150,"o":"m 991 1173 q 1150 1015 1150 1154 q 968 793 1150 910 q 722 547 966 781 q 667 9 722 9 q 541 -46 608 -42 q 374 120 374 -14 q 390 437 390 265 l 390 547 l 74 888 q 34 991 34 945 q 184 1149 61 1149 l 208 1149 q 549 840 319 1149 l 564 832 q 991 1173 871 1173 m 770 844 q 757 840 766 844 q 744 827 744 831 l 741 832 q 718 844 728 844 q 691 813 695 844 q 709 769 691 793 q 743 747 732 747 q 763 758 752 747 q 796 817 796 796 l 796 824 q 775 844 790 844 l 770 844 m 600 741 q 575 734 590 741 q 553 712 553 718 l 548 720 q 509 739 528 739 q 464 688 471 739 q 494 612 464 652 q 553 574 534 574 q 587 594 568 574 q 643 694 643 659 l 643 705 q 607 741 632 741 l 600 741 m 393 852 q 379 848 388 852 q 366 836 366 840 l 363 840 q 340 852 351 852 q 313 821 317 852 q 332 777 313 801 q 366 755 355 755 q 385 766 374 755 q 418 825 418 804 l 418 832 q 397 852 412 852 l 393 852 z "},"Z":{"ha":1263,"x_min":34,"x_max":1229,"o":"m 905 1189 q 1181 1038 1133 1189 l 1190 983 q 865 603 1190 846 q 580 357 580 368 q 849 374 695 374 q 1174 318 1174 357 q 1229 191 1229 277 q 1055 18 1192 18 q 817 57 894 57 l 754 57 q 208 -14 629 57 q 34 168 67 -14 q 691 864 34 338 l 683 864 q 208 832 628 864 q 74 983 104 832 l 74 999 q 335 1157 74 1157 q 905 1189 687 1189 m 789 831 q 779 819 784 827 q 777 804 777 808 q 777 801 777 802 l 772 802 q 765 803 768 803 q 747 798 753 803 q 737 779 737 790 q 744 758 737 770 q 785 733 757 741 q 805 732 797 732 q 826 736 821 732 q 835 758 833 741 q 836 777 836 768 q 825 825 836 811 l 821 829 q 802 837 811 837 q 792 833 797 837 l 789 831 m 612 704 q 597 684 606 698 q 592 658 592 666 q 593 653 592 654 l 585 656 q 572 656 578 656 q 541 648 553 656 q 525 616 525 635 q 537 580 525 601 q 607 538 558 551 q 641 536 627 536 q 676 543 667 536 q 691 579 688 552 q 692 614 692 598 q 675 694 692 671 l 669 703 q 637 715 651 715 q 618 708 627 715 l 612 704 m 444 503 q 435 491 439 500 q 432 477 432 481 q 433 473 432 474 l 427 475 q 420 475 423 475 q 402 470 409 475 q 393 452 393 463 q 399 430 393 442 q 441 406 412 414 q 460 404 452 404 q 481 408 476 404 q 490 430 488 414 q 491 450 491 440 q 481 497 491 484 l 477 502 q 458 509 467 509 q 448 506 452 509 l 444 503 z "},"z":{"ha":1263,"x_min":34,"x_max":1229,"o":"m 905 1189 q 1181 1038 1133 1189 l 1190 983 q 865 603 1190 846 q 580 357 580 368 q 849 374 695 374 q 1174 318 1174 357 q 1229 191 1229 277 q 1055 18 1192 18 q 817 57 894 57 l 754 57 q 208 -14 629 57 q 34 168 67 -14 q 691 864 34 338 l 683 864 q 208 832 628 864 q 74 983 104 832 l 74 999 q 335 1157 74 1157 q 905 1189 687 1189 m 789 831 q 779 819 784 827 q 777 804 777 808 q 777 801 777 802 l 772 802 q 765 803 768 803 q 747 798 753 803 q 737 779 737 790 q 744 758 737 770 q 785 733 757 741 q 805 732 797 732 q 826 736 821 732 q 835 758 833 741 q 836 777 836 768 q 825 825 836 811 l 821 829 q 802 837 811 837 q 792 833 797 837 l 789 831 m 612 704 q 597 684 606 698 q 592 658 592 666 q 593 653 592 654 l 585 656 q 572 656 578 656 q 541 648 553 656 q 525 616 525 635 q 537 580 525 601 q 607 538 558 551 q 641 536 627 536 q 676 543 667 536 q 691 579 688 552 q 692 614 692 598 q 675 694 692 671 l 669 703 q 637 715 651 715 q 618 708 627 715 l 612 704 m 444 503 q 435 491 439 500 q 432 477 432 481 q 433 473 432 474 l 427 475 q 420 475 423 475 q 402 470 409 475 q 393 452 393 463 q 399 430 393 442 q 441 406 412 414 q 460 404 452 404 q 481 408 476 404 q 490 430 488 414 q 491 450 491 440 q 481 497 491 484 l 477 502 q 458 509 467 509 q 448 506 452 509 l 444 503 z "},"[":{"ha":915,"x_min":34,"x_max":881,"o":"m 675 1260 q 881 1109 881 1231 l 881 1070 q 652 935 867 935 l 644 935 q 437 920 506 920 q 359 271 382 705 l 366 271 q 778 199 778 271 q 817 120 798 199 l 817 65 q 675 -70 817 -29 q 137 1 137 -48 q 34 223 34 66 q 137 1015 81 901 q 271 1204 203 1204 q 675 1260 271 1244 m 220 389 q 208 387 215 389 q 194 376 194 379 l 191 380 q 169 394 180 393 l 166 394 q 140 367 146 394 l 140 362 q 153 321 140 343 q 185 295 174 296 l 186 295 q 206 304 195 295 q 245 360 243 339 l 245 366 q 227 389 241 388 l 220 389 m 281 646 l 278 646 q 256 642 269 646 q 232 623 233 629 l 228 631 q 191 654 209 652 l 185 654 q 140 607 152 654 q 140 599 140 603 q 163 529 140 568 q 218 486 199 487 l 220 486 q 253 502 234 486 q 319 596 316 560 l 321 607 q 288 646 313 643 l 281 646 m 270 837 q 258 835 264 837 q 243 823 244 827 l 241 828 q 219 842 230 841 l 216 842 q 190 814 196 842 l 190 810 q 203 768 190 791 q 235 743 224 744 l 237 743 q 256 752 245 743 q 295 808 293 787 l 296 814 q 277 837 291 836 l 270 837 z "},"\\":{"ha":827,"x_min":34,"x_max":793,"o":"m 200 1213 q 390 951 343 1213 q 778 191 555 552 q 793 104 793 161 q 635 -54 762 -54 l 627 -54 q 430 152 509 -54 q 42 983 193 574 q 34 1038 42 1007 q 200 1213 60 1213 m 475 407 q 465 397 471 405 q 458 382 458 387 q 458 380 458 381 l 454 383 q 438 386 445 386 q 427 384 432 386 q 414 361 414 377 q 416 345 414 354 q 452 313 426 326 q 484 306 473 306 q 492 307 490 306 q 505 326 500 311 q 514 374 514 355 q 510 394 514 387 l 507 399 q 487 411 496 411 q 479 409 483 411 l 475 407 m 393 657 q 374 641 385 653 q 363 614 363 621 q 364 612 363 612 l 355 616 q 330 621 342 621 q 312 617 320 621 q 288 579 288 606 q 293 551 288 567 q 353 496 309 519 q 408 484 389 484 q 422 487 416 484 q 444 519 435 493 q 458 601 458 570 q 452 634 458 621 l 448 644 q 413 663 429 663 q 400 661 406 663 l 393 657 m 288 817 q 276 807 282 814 q 270 791 270 795 l 270 789 l 265 792 q 250 795 257 795 q 239 793 244 795 q 226 770 226 786 q 229 754 226 764 q 264 722 237 736 q 296 715 285 715 q 304 716 301 715 q 317 735 312 720 q 326 783 326 765 q 322 803 326 795 l 319 809 q 299 821 309 821 q 292 819 295 821 l 288 817 z "},"]":{"ha":851,"x_min":34,"x_max":817,"o":"m 232 1252 q 303 1236 286 1244 q 485 1252 343 1242 q 817 975 817 1252 q 699 65 758 65 q 509 -22 640 -22 q 90 49 90 -22 q 34 160 58 49 q 176 318 73 318 l 437 302 q 493 927 493 802 q 256 920 323 920 q 74 1070 74 956 l 74 1109 q 232 1252 74 1214 m 632 444 q 619 442 627 444 q 606 431 606 434 l 603 435 q 581 449 592 448 l 578 449 q 552 421 558 449 l 552 416 q 566 376 552 398 q 597 350 587 351 l 599 350 q 618 359 607 350 q 657 415 655 394 l 658 422 q 638 444 653 443 l 632 444 m 691 701 l 689 701 q 667 697 680 701 q 643 677 644 684 l 638 686 q 601 709 620 707 l 596 709 q 551 662 562 709 q 551 654 551 658 q 575 584 551 622 q 629 541 611 542 l 631 541 q 665 557 645 541 q 730 651 727 616 l 732 663 q 699 701 724 699 l 691 701 m 682 892 q 667 890 677 892 q 654 878 654 882 l 651 883 q 629 897 640 896 l 626 897 q 600 869 606 897 l 600 864 q 614 823 600 846 q 645 798 635 799 l 646 798 q 666 807 654 798 q 705 863 703 842 l 705 869 q 686 892 701 890 l 682 892 z "},"^":{"ha":844,"x_min":34,"x_max":810,"o":"m 366 1133 l 406 1133 q 651 911 529 1133 q 810 706 810 752 l 810 666 q 659 516 783 516 l 644 516 q 398 713 535 516 l 390 713 q 216 516 310 516 l 169 516 q 34 674 63 516 q 264 1086 34 764 q 366 1133 335 1133 z "},"_":{"ha":1295,"x_min":34,"x_max":1261,"o":"m 1095 334 q 1261 191 1261 297 l 1261 144 q 1118 1 1261 52 q 936 9 994 9 q 161 -14 669 9 q 34 144 34 33 q 224 310 34 290 q 1095 334 975 334 m 889 224 q 876 220 884 224 q 863 207 863 211 l 859 212 q 836 223 847 223 q 810 193 814 223 q 828 149 810 172 q 862 126 851 126 q 882 138 871 126 q 915 197 915 176 l 915 203 q 894 224 909 224 l 889 224 m 704 243 q 680 237 694 243 q 658 215 658 221 l 652 222 q 613 242 632 242 q 568 191 575 242 q 599 115 568 155 q 657 77 639 77 q 691 97 672 77 q 747 197 747 161 l 747 208 q 711 243 736 243 l 704 243 m 472 209 q 458 205 467 209 q 446 192 446 196 l 442 197 q 419 208 430 208 q 393 178 397 208 q 411 134 393 157 q 445 111 434 111 q 465 123 454 111 q 498 182 498 161 l 498 189 q 477 209 492 209 l 472 209 z "},"{":{"ha":970,"x_min":34,"x_max":936,"o":"m 635 1157 l 659 1157 q 936 927 813 1157 l 936 880 q 786 730 912 730 l 770 730 q 588 848 697 730 q 477 999 477 903 q 635 1157 509 1157 m 327 761 l 390 761 q 651 690 607 761 q 699 579 699 632 q 541 421 667 421 q 351 445 437 437 l 193 405 l 184 405 q 34 547 34 431 l 34 579 q 327 761 34 715 m 730 405 q 888 247 888 374 q 691 18 888 131 q 635 1 651 1 q 477 152 477 31 l 477 168 q 683 397 477 288 q 730 405 724 405 z "},"|":{"ha":416,"x_min":34,"x_max":382,"o":"m 216 1244 l 232 1244 q 382 1109 340 1244 l 382 1094 q 359 848 359 966 l 359 579 q 374 104 359 467 q 216 -38 374 -2 q 42 231 42 -38 q 34 627 34 428 q 113 1196 34 1181 q 216 1244 153 1244 m 220 402 q 206 398 215 402 q 193 385 193 389 l 190 390 q 167 401 178 401 q 140 371 144 401 q 159 327 140 351 q 193 304 182 304 q 212 316 201 304 q 245 375 245 354 l 245 382 q 224 402 239 402 l 220 402 m 253 663 q 229 656 243 663 q 207 635 207 641 l 201 642 q 162 662 181 662 q 117 611 124 662 q 148 535 117 575 q 206 497 188 497 q 240 517 221 497 q 296 617 296 581 l 296 628 q 260 663 286 663 l 253 663 m 225 852 q 212 848 220 852 q 199 836 199 840 l 195 840 q 172 852 183 852 q 146 821 150 852 q 164 777 146 801 q 198 755 187 755 q 218 766 207 755 q 251 825 251 804 l 251 832 q 230 852 245 852 l 225 852 z "},"}":{"ha":970,"x_min":34,"x_max":936,"o":"m 430 1165 q 580 1015 580 1138 l 580 999 q 454 840 580 913 q 232 659 317 659 l 224 659 q 66 817 66 690 q 200 1030 66 892 q 430 1165 326 1165 m 604 690 l 612 690 q 928 564 849 690 l 936 508 l 936 492 q 810 350 910 350 l 770 350 q 612 381 647 381 l 596 381 q 414 350 543 381 q 256 508 256 381 q 604 690 256 690 m 176 366 l 200 366 q 406 160 323 366 l 406 104 q 279 -22 370 -22 l 240 -22 q 34 176 135 -22 l 34 223 q 176 366 34 340 z "},"~":{"ha":1200,"x_min":34,"x_max":1166,"o":"m 1000 880 l 1015 880 q 1166 722 1141 880 q 905 366 1166 515 q 762 334 848 334 q 454 492 593 334 q 398 532 406 532 q 311 437 351 521 q 216 389 252 389 l 169 389 q 34 547 60 389 l 34 555 q 327 840 34 730 q 366 848 340 848 l 414 848 q 707 698 574 848 l 754 659 l 770 659 q 873 817 819 669 q 1000 880 937 880 m 808 543 q 795 538 804 543 q 782 526 782 530 l 779 530 q 755 542 766 542 q 729 511 733 542 q 747 467 729 491 q 781 445 770 445 q 801 456 790 445 q 834 515 834 494 l 834 522 q 813 543 828 543 l 808 543 m 638 648 q 614 642 629 648 q 592 620 592 626 l 587 627 q 547 647 566 647 q 503 596 509 647 q 533 520 503 560 q 591 482 573 482 q 625 502 606 482 q 682 602 682 566 l 682 613 q 646 648 671 648 l 638 648 m 438 743 q 425 739 433 743 q 412 726 412 730 l 408 730 q 385 742 396 742 q 359 711 363 742 q 377 667 359 691 q 411 645 400 645 q 431 656 420 645 q 464 715 464 694 l 464 722 q 443 743 458 743 l 438 743 z "},"¢":{"ha":883,"x_min":34,"x_max":849,"o":"m 509 1165 q 675 983 650 1165 q 849 769 849 940 q 699 618 817 618 l 683 618 q 556 682 625 618 q 359 587 359 654 l 359 571 q 541 532 452 532 q 675 555 572 532 q 833 397 833 524 q 659 223 833 277 q 525 81 622 81 l 485 81 q 335 247 369 81 q 105 381 174 288 q 34 587 34 479 q 342 959 34 827 q 493 1157 366 1157 l 509 1165 m 309 445 q 296 441 304 445 q 283 428 283 432 l 279 433 q 256 444 267 444 q 230 414 234 444 q 248 370 230 393 q 282 347 271 347 q 302 359 291 347 q 335 418 335 397 l 335 425 q 314 445 329 445 l 309 445 m 239 654 q 215 648 230 654 q 193 626 193 632 l 188 633 q 149 653 168 653 q 104 602 111 653 q 134 526 104 566 q 193 488 174 488 q 227 508 208 488 q 283 608 283 572 l 283 619 q 247 654 272 654 l 239 654 m 294 817 q 281 813 290 817 q 268 800 268 804 l 264 805 q 241 817 252 817 q 215 786 219 817 q 233 742 215 766 q 267 720 256 720 q 287 731 276 720 q 320 790 320 769 l 320 797 q 299 817 314 817 l 294 817 z "},"£":{"ha":1081,"x_min":34,"x_max":1047,"o":"m 739 1189 q 991 983 991 1152 q 825 785 964 785 l 817 785 q 683 856 752 785 q 620 753 620 779 l 627 753 q 762 618 762 710 l 762 579 q 612 437 762 463 l 509 437 q 461 310 509 420 q 920 342 798 342 q 1047 208 1047 293 l 1047 176 q 707 9 1047 9 q 248 -30 279 -30 q 58 128 58 1 l 58 176 q 169 429 58 211 l 169 437 q 34 587 62 437 l 34 595 q 224 753 34 741 l 288 753 q 517 1125 365 1023 q 739 1189 615 1189 m 341 422 q 328 418 336 422 q 315 406 315 410 l 311 410 q 288 422 299 422 q 262 391 266 422 q 280 347 262 371 q 314 325 303 325 q 334 336 323 325 q 367 395 367 374 l 367 402 q 346 422 361 422 l 341 422 m 437 677 q 413 671 428 677 q 391 649 391 655 l 386 656 q 347 676 366 676 q 302 625 309 676 q 332 549 302 589 q 391 511 372 511 q 425 531 406 511 q 481 631 481 595 l 481 642 q 445 677 470 677 l 437 677 m 493 872 q 479 868 488 872 q 467 855 467 859 l 463 860 q 440 871 451 871 q 414 841 418 871 q 432 797 414 821 q 466 774 455 774 q 486 786 475 774 q 519 845 519 824 l 519 852 q 498 872 513 872 l 493 872 z "},"‘":{"ha":448,"x_min":34,"x_max":414,"o":"m 232 748 q 34 994 70 748 l 34 1017 q 176 1302 34 1191 q 240 1318 205 1318 l 264 1318 q 414 1168 414 1291 l 414 1144 q 366 1009 414 1118 q 390 922 390 949 l 390 899 q 232 748 390 776 z "},"’":{"ha":448,"x_min":34,"x_max":414,"o":"m 216 1318 q 414 1073 378 1318 l 414 1049 q 271 764 414 876 q 208 748 243 748 l 184 748 q 34 899 34 775 l 34 922 q 81 1057 34 948 q 58 1144 58 1118 l 58 1168 q 216 1318 58 1291 z "},"“":{"ha":979,"x_min":34,"x_max":945,"o":"m 232 748 q 34 994 70 748 l 34 1017 q 176 1302 34 1191 q 240 1318 205 1318 l 264 1318 q 414 1168 414 1291 l 414 1144 q 366 1009 414 1118 q 390 922 390 949 l 390 899 q 232 748 390 776 m 764 748 q 566 994 602 748 l 566 1017 q 708 1302 566 1191 q 772 1318 737 1318 l 795 1318 q 945 1168 945 1291 l 945 1144 q 898 1009 945 1118 q 922 922 922 949 l 922 899 q 764 748 922 776 z "},"”":{"ha":979,"x_min":34,"x_max":945,"o":"m 216 1318 q 414 1073 378 1318 l 414 1049 q 271 764 414 876 q 208 748 243 748 l 184 748 q 34 899 34 775 l 34 922 q 81 1057 34 948 q 58 1144 58 1118 l 58 1168 q 216 1318 58 1291 m 748 1318 q 945 1073 909 1318 l 945 1049 q 803 764 945 876 q 740 748 774 748 l 716 748 q 566 899 566 775 l 566 922 q 613 1057 566 948 q 589 1144 589 1118 l 589 1168 q 748 1318 589 1291 z "},"…":{"ha":1475,"x_min":34,"x_max":1441,"o":"m 305 443 q 399 283 399 364 q 376 201 399 242 q 224 98 301 98 q 154 119 189 98 l 134 130 q 34 294 34 188 q 35 307 34 300 q 54 387 45 372 q 211 471 130 471 q 305 443 257 471 m 826 443 q 920 283 920 364 q 897 201 920 242 q 745 98 822 98 q 675 119 710 98 l 654 130 q 555 294 555 188 q 555 307 555 300 q 574 387 566 372 q 732 471 651 471 q 826 443 778 471 m 1347 443 q 1441 283 1441 364 q 1417 201 1441 242 q 1265 98 1343 98 q 1196 119 1231 98 l 1175 130 q 1076 294 1076 188 q 1076 307 1076 300 q 1095 387 1087 372 q 1252 471 1171 471 q 1347 443 1299 471 z "},"€":{"ha":1374,"x_min":34,"x_max":1340,"o":"m 991 1213 q 1269 1046 1229 1213 l 1276 999 q 1118 848 1276 882 q 1000 888 1091 848 l 952 896 q 604 777 712 896 l 754 777 q 936 650 901 777 l 936 587 q 817 452 936 508 q 493 469 796 452 q 739 342 530 342 q 1142 460 918 342 l 1198 460 q 1340 318 1340 430 l 1340 286 q 888 41 1340 119 q 739 25 829 25 q 193 357 324 25 q 137 452 193 452 q 34 595 34 504 l 34 611 q 200 761 34 742 q 279 896 209 761 q 991 1213 510 1213 m 700 661 q 686 656 695 661 q 673 644 673 648 l 670 648 q 647 660 658 660 q 621 629 625 660 q 639 585 621 609 q 673 563 662 563 q 692 574 682 563 q 726 633 726 612 l 726 640 q 705 661 720 661 l 700 661 m 520 700 q 496 693 511 700 q 474 671 474 677 l 469 679 q 429 699 448 699 q 385 648 391 699 q 415 572 385 612 q 473 534 455 534 q 507 553 488 534 q 564 654 564 618 l 564 665 q 528 700 553 700 l 520 700 m 286 667 q 272 663 281 667 q 259 650 259 654 l 256 655 q 233 667 243 667 q 206 636 210 667 q 224 592 206 616 q 258 570 248 570 q 278 581 267 570 q 311 640 311 619 l 311 647 q 290 667 305 667 l 286 667 z "},"™":{"ha":1366,"x_min":34,"x_max":1332,"o":"m 1015 1189 l 1071 1189 q 1332 935 1250 1189 l 1332 856 q 920 128 1332 597 q 675 -14 785 -14 q 256 262 544 -14 q 34 808 34 553 q 359 1181 83 1181 q 644 1038 494 1181 l 683 983 q 841 1141 683 1027 q 1015 1189 949 1189 m 703 385 q 689 380 698 385 q 676 368 676 372 l 673 372 q 650 384 661 384 q 623 353 627 384 q 642 309 623 333 q 675 287 665 287 q 695 298 684 287 q 728 357 728 336 l 728 364 q 707 385 722 385 l 703 385 m 736 646 q 711 639 726 646 q 690 617 690 623 l 684 625 q 645 644 664 644 q 600 593 607 644 q 631 517 600 557 q 689 479 671 479 q 723 499 704 479 q 779 600 779 564 l 779 610 q 743 646 768 646 l 736 646 m 708 835 q 694 831 703 835 q 682 818 682 822 l 678 823 q 655 834 666 834 q 629 804 633 834 q 647 760 629 783 q 681 737 670 737 q 701 749 690 737 q 734 808 734 787 l 734 814 q 713 835 728 835 l 708 835 z "}}}
